<svg width="91" height="65" viewBox="0 0 91 65" fill="none" xmlns="http://www.w3.org/2000/svg">
<path d="M90.29 20.7601C90.29 21.7601 90.34 22.9401 90.35 24.1201C90.4048 24.8253 90.3678 25.5345 90.24 26.2301C90.0988 26.9964 89.9151 27.7542 89.69 28.5001C89.4408 29.3169 89.1436 30.1183 88.8 30.9001C88.18 32.0701 87.62 33.2801 87.01 34.4501C86.2335 35.9883 85.1946 37.3792 83.94 38.5601C82.8462 39.5606 81.6417 40.4329 80.35 41.1601C78.6872 42.0181 76.9416 42.705 75.14 43.2101C74.3564 43.5659 73.5101 43.763 72.65 43.7901C72.4216 43.8168 72.2008 43.8881 72 44.0001C70.68 44.4801 69.28 44.6801 68 45.1301C67.12 45.1301 66.39 45.7401 65.5 45.6701C64.81 46.0501 63.99 46.0501 63.29 46.4101C62.8 46.6601 62.16 46.4101 61.72 46.8001C61.28 47.1901 60.79 46.9401 60.41 47.2401C60.62 47.5201 60.94 47.4001 61.21 47.4501C61.4361 47.4912 61.6598 47.5446 61.88 47.6101C61.95 47.6101 62 47.7101 62.05 47.7501C62.074 47.9057 62.0669 48.0644 62.0291 48.2172C61.9914 48.3699 61.9237 48.5137 61.83 48.6401C62.0645 49.3039 62.1664 50.0072 62.13 50.7101C62.0944 51.1003 62.1317 51.4936 62.24 51.8701C62.4531 52.456 62.604 53.0627 62.69 53.6801C62.805 54.0521 62.9592 54.4108 63.15 54.7501C63.36 55.1701 63.6 55.5801 63.8 56.0001C64.1367 56.7086 64.605 57.3466 65.18 57.8801C65.58 58.2601 65.99 58.6201 66.49 59.0701C67.43 59.5401 68.49 60.0701 69.49 60.5901C69.8518 60.741 70.1613 60.9948 70.38 61.3201C70.4549 61.4503 70.4764 61.6044 70.44 61.7501C70.4095 61.8179 70.3653 61.8786 70.3102 61.9285C70.2552 61.9784 70.1904 62.0164 70.12 62.0401C69.8956 62.1048 69.6635 62.1384 69.43 62.1401C68.81 62.1401 68.18 62.1401 67.5 62.1401L66.22 63.4701C65.7018 63.8476 65.1372 64.1568 64.54 64.3901C62.3451 64.5153 60.1449 64.5153 57.95 64.3901C57.4 64.2301 57.03 64.0901 56.66 64.0101C56.29 63.9301 55.71 63.9601 55.27 63.8201C54.27 63.5101 53.19 63.1701 52.18 62.7701C51.17 62.3701 50.48 61.9801 49.64 61.5601C48.0204 60.6114 46.5369 59.4474 45.23 58.1001C44.2939 57.0497 43.5917 55.8124 43.17 54.4701C43.0834 54.169 42.9591 53.8801 42.8 53.6101C42.7247 53.4751 42.6412 53.3449 42.55 53.2201C41.6895 53.0301 40.7899 53.1395 40 53.5301L36.08 53.7001L35.33 54.0001L32.61 54.0601C32.0638 54.099 31.5289 54.2344 31.03 54.4601L28.92 54.5701C28.685 54.5561 28.4492 54.5763 28.22 54.6301C27.5596 54.8732 26.8635 55.005 26.16 55.0201L23.93 55.1001L23 55.4401C20.57 55.5401 18 55.5701 15.54 55.4401C15.139 55.2689 14.7196 55.1447 14.29 55.0701C13.49 55.0701 12.82 54.5501 12.03 54.4901C10.95 53.8601 9.71 53.5801 8.61 52.9901C7.13096 52.2507 5.7804 51.2783 4.61 50.1101L2.47 47.8301L1 44.8501C0.976664 44.0343 0.810833 43.2288 0.51 42.4701C0.51 41.9201 0.44 41.3801 0.38 40.8301C0.38 40.4501 0.24 40.0701 0.16 39.6501C0.289066 39.4311 0.343266 39.176 0.314397 38.9233C0.285528 38.6707 0.175162 38.4344 0 38.2501L0 36.2501C0.218427 35.3446 0.378753 34.4261 0.48 33.5001C0.638537 32.5804 0.879509 31.6767 1.2 30.8001C1.43 30.3001 1.29 29.7201 1.56 29.2101C2.29 27.8301 2.56 26.2701 3.27 24.8701C3.87921 23.6927 4.58144 22.5658 5.37 21.5001C6.36749 20.1944 7.46406 18.9674 8.65 17.8301C9.04 17.4401 9.45 17.0801 9.85 16.7001C10.77 16.3601 11.26 15.4801 12.08 15.0101C12.3623 14.877 12.6248 14.7053 12.86 14.5001C14.2207 13.3226 15.6607 12.24 17.17 11.2601C17.35 11.1201 17.61 11.0701 17.77 10.9101C18.84 9.84014 20.29 9.35014 21.47 8.44014L26.09 6.16014C27.0632 5.87822 28.0127 5.52045 28.93 5.09014C29.93 4.80014 30.84 4.42014 31.81 4.15014C32.3815 3.89976 32.9833 3.72495 33.6 3.63014C34.22 3.63014 34.74 3.11014 35.39 3.14014C35.9486 2.8543 36.5629 2.6939 37.19 2.67014C37.86 2.18014 38.73 2.40014 39.43 2.05014C40.13 1.70014 41 2.00014 41.68 1.44014L43.81 1.25014L44.68 0.920137C45.37 0.920137 46.07 0.850137 46.77 0.780137C47.4471 0.606156 48.1354 0.479186 48.83 0.400137C49.61 0.400137 50.4 0.350137 51.18 0.330137C51.96 0.310137 52.59 0.330137 53.3 0.330137H53.6C54.28 0.100137 55 -0.259863 55.82 0.300137L56.63 0.110137C58.3 0.480137 60 0.230137 61.71 0.500137C61.9423 0.635324 62.1959 0.730008 62.46 0.780137C63.3886 0.890314 64.3102 1.05392 65.22 1.27014C66.0307 1.54837 66.8688 1.73944 67.72 1.84014C68.3743 2.0659 69.0423 2.24961 69.72 2.39014C71.04 2.87014 72.4 3.20014 73.72 3.70014C74.08 3.84014 74.45 3.98014 74.8 4.15014C76.48 4.98014 78.16 5.81014 79.8 6.67014C80.9478 7.21764 82.0228 7.9063 83 8.72014C83.7553 9.27641 84.4766 9.87749 85.16 10.5201C86.4596 11.8761 87.5423 13.4242 88.37 15.1101C88.8758 16.0719 89.2973 17.0757 89.63 18.1101C89.75 18.5601 89.88 19.0001 89.96 19.4701C90.046 19.9059 90.1562 20.3366 90.29 20.7601V20.7601ZM45.72 50.8401C46.4817 51.289 47.1153 51.926 47.56 52.6901C48.2363 53.9197 49.0999 55.0365 50.12 56.0001L53.2 59.0001C53.8187 59.2986 54.4197 59.6325 55 60.0001C55.6985 60.5007 56.4537 60.9169 57.25 61.2401C57.82 61.4801 58.41 61.6801 58.99 61.9101C59.57 62.1401 60.41 61.9801 60.99 62.4201C61.1347 62.4829 61.2932 62.5071 61.45 62.4901C62.6012 62.5884 63.7588 62.5884 64.91 62.4901L66.01 61.9301C66.01 61.9301 66.07 61.8401 66.1 61.7901C65.4955 61.4622 64.8588 61.1974 64.2 61.0001C63.4648 60.6745 62.7472 60.3106 62.05 59.9101C61.42 59.3101 60.72 58.6701 60.05 58.0101C59.66 57.6301 59.3 57.2101 58.91 56.7901L57.91 54.5801C57.7872 52.8356 57.7872 51.0846 57.91 49.3401C58.03 48.9201 58.31 48.6001 58.23 48.1801C58.1659 48.0824 58.0717 48.0081 57.9617 47.9684C57.8517 47.9287 57.7318 47.9258 57.62 47.9601C57.17 48.0601 56.73 48.2201 56.31 48.3401C56.1597 48.2936 56.0226 48.2124 55.9096 48.1029C55.7967 47.9934 55.7112 47.8589 55.66 47.7101C56.3284 47.301 57.0392 46.9657 57.78 46.7101C58.6111 46.2821 59.4658 45.9015 60.34 45.5701C61.2526 45.1314 62.2031 44.7766 63.18 44.5101C64.0067 44.0809 64.8788 43.7455 65.78 43.5101C66.23 43.1401 66.78 43.2201 67.32 42.9601C67.8006 42.7011 68.3024 42.4837 68.82 42.3101C70.0021 41.918 71.1578 41.4504 72.28 40.9101C73.2 40.4701 74.04 39.9101 74.9 39.3901C75.76 38.8701 76.6 37.7701 77.67 37.2301C77.9253 36.8414 78.2024 36.4675 78.5 36.1101C78.754 35.8671 79.0283 35.6463 79.32 35.4501C80.17 34.0201 80.8 32.5901 81.65 31.2701C82.2463 30.4438 82.6682 29.5047 82.89 28.5101C83.32 27.8401 83.3 27.0001 83.72 26.2501C83.72 24.7501 83.72 23.1801 83.72 21.6101C83.7641 20.9854 83.7339 20.3577 83.63 19.7401C83.48 19.1401 83.29 18.5501 83.1 17.9601C83.0249 17.8209 82.9581 17.6773 82.9 17.5301C82.4984 15.8509 81.6916 14.2955 80.55 13.0001C78.9611 10.9573 76.9029 9.32789 74.55 8.25014C73.77 7.90014 73.01 7.52014 72.19 7.25014C71.5201 7.03521 70.8787 6.73971 70.28 6.37014C69.57 6.00014 68.71 6.16014 68 5.70014C67.14 5.60014 66.41 5.03014 65.52 5.07014C64.7788 4.83764 64.024 4.65062 63.26 4.51014C62.7527 4.30739 62.2156 4.18915 61.67 4.16014C61.02 4.16014 60.49 3.76014 59.86 3.73014L57.76 3.62014L56.89 3.31014H54.09L53.22 3.60014L47.9 3.78014L47.11 4.12014L45.11 4.24014C44.11 4.70014 43.11 4.67014 42.11 5.07014C41.2461 5.07464 40.3933 5.26566 39.61 5.63014C38.8 5.91014 37.95 6.01014 37.14 6.31014C35.7233 6.71882 34.3394 7.23361 33 7.85014C32.0115 8.08234 31.0663 8.47054 30.2 9.00014C29.1924 9.42846 28.2224 9.94024 27.3 10.5301C24.4921 12.2335 21.8446 14.1882 19.39 16.3701C19.2269 16.5391 19.0379 16.6809 18.83 16.7901C18.4205 17.021 18.0549 17.3223 17.75 17.6801C17.42 18.0201 17.07 18.3301 16.75 18.6801C16.43 19.0301 16.25 19.4901 15.92 19.8101C15.3534 20.4578 14.8541 21.1614 14.43 21.9101C13.99 22.5501 13.68 23.2801 13.3 23.9101C12.9142 24.677 12.5801 25.4687 12.3 26.2801C11.89 27.2801 11.72 28.3801 11.3 29.3901C11.1811 29.8439 11.1206 30.311 11.12 30.7801C11.1056 30.9338 11.0615 31.0833 10.99 31.2201C10.7823 31.6458 10.686 32.1171 10.71 32.5901C10.71 33.4501 10.65 34.3101 10.62 35.2201C10.56 35.5501 10.29 35.8801 10.37 36.3001L10.65 36.9701C10.65 37.5701 10.65 38.2001 10.71 38.8301C10.77 39.4601 10.79 39.9201 10.82 40.4701C11.3 41.2201 11.05 42.1801 11.55 42.9201C11.6301 43.5434 11.8948 44.1285 12.31 44.6001C12.487 44.8573 12.6033 45.1514 12.65 45.4601C12.6814 45.6117 12.7667 45.7466 12.89 45.8401C13.55 46.1801 13.74 46.9401 14.28 47.4001C14.82 47.8601 15.28 48.4001 15.8 48.8701L16.48 49.5001C17.844 50.3141 19.2682 51.0228 20.74 51.6201C23.97 51.7201 27.26 51.6201 30.55 51.5301C31.0541 51.3183 31.5934 51.203 32.14 51.1901H39.43H43.43C43.9007 51.1794 44.3653 51.0811 44.8 50.9001C45.1019 50.8341 45.4121 50.8139 45.72 50.8401V50.8401Z" fill="#8B8B8B"/>
<path d="M27.3935 23.3088C27.3215 23.3088 27.2705 23.2908 27.2405 23.2548C27.2165 23.2188 27.2045 23.1678 27.2045 23.1018C27.2045 22.9698 27.2345 22.7658 27.2945 22.4898C27.3605 22.2378 27.3935 22.0308 27.3935 21.8688C27.3935 21.4008 27.3575 21.0438 27.2855 20.7978H27.0065C26.7605 20.7978 26.4395 20.7918 26.0435 20.7798L25.1975 20.7708H23.9825L24.0005 21.1218C24.0005 21.3978 24.0455 21.7428 24.1355 22.1568C24.1655 22.3248 24.1925 22.4958 24.2165 22.6698C24.2465 22.8378 24.2615 22.9908 24.2615 23.1288V23.2098C24.2015 23.2698 24.1385 23.2998 24.0725 23.2998C23.9165 23.2998 23.7935 23.1168 23.7035 22.7508C23.6135 22.3788 23.5685 21.9318 23.5685 21.4098C23.5685 21.1998 23.5775 20.9928 23.5955 20.7888C23.4635 20.7828 23.3735 20.7618 23.3255 20.7258C23.2775 20.6838 23.2535 20.6208 23.2535 20.5368C23.2535 20.4708 23.2715 20.4258 23.3075 20.4018C23.3495 20.3778 23.4215 20.3598 23.5235 20.3478L23.5145 20.1048L23.5415 19.6908C23.5835 19.0128 23.6465 18.4608 23.7305 18.0348C23.8145 17.6088 23.9945 17.2398 24.2705 16.9278C24.5465 16.6158 24.9605 16.4598 25.5125 16.4598C26.1425 16.4598 26.6345 16.7988 26.9885 17.4768C27.3425 18.1548 27.5825 18.9108 27.7085 19.7448C27.8345 20.5788 27.8975 21.2958 27.8975 21.8958C27.8975 22.1118 27.8915 22.3008 27.8795 22.4628C27.8675 22.6188 27.8435 22.8138 27.8075 23.0478C27.6695 23.2218 27.5315 23.3088 27.3935 23.3088ZM27.2495 20.4468C27.1355 19.3368 26.9315 18.4668 26.6375 17.8368C26.3435 17.2008 25.9025 16.8828 25.3145 16.8828C24.8765 16.8828 24.5525 17.0868 24.3425 17.4948C24.1385 17.8968 24.0155 18.3288 23.9735 18.7908C23.9315 19.2528 23.9105 19.7718 23.9105 20.3478L27.2495 20.4468ZM29.2764 27.0618C28.7604 27.0618 28.3314 26.8518 27.9894 26.4318C27.6474 26.0178 27.4374 25.4208 27.3594 24.6408C27.3594 24.6228 27.3594 24.5808 27.3594 24.5148C27.3534 24.4488 27.3654 24.3918 27.3954 24.3438C27.4194 24.3018 27.4614 24.2748 27.5214 24.2628C27.5514 24.2688 27.5814 24.3078 27.6114 24.3798C27.6354 24.4518 27.6654 24.5748 27.7014 24.7488C27.7794 25.0908 27.8664 25.3878 27.9624 25.6398C28.0584 25.8918 28.2054 26.1168 28.4034 26.3148C28.6014 26.5128 28.8564 26.6118 29.1684 26.6118C29.4204 26.6118 29.5944 26.5428 29.6904 26.4048C29.7924 26.2668 29.8494 26.0478 29.8614 25.7478L29.8704 25.3698C29.8704 24.5778 29.7984 23.7618 29.6544 22.9218C29.5164 22.0758 29.3184 21.1008 29.0604 19.9968C29.0664 19.9728 29.0724 19.9368 29.0784 19.8888C29.0844 19.8348 29.1024 19.7988 29.1324 19.7808C29.1684 19.7628 29.2254 19.7538 29.3034 19.7538C29.4354 19.8318 29.5794 20.2188 29.7354 20.9148C29.8974 21.6048 30.0324 22.4028 30.1404 23.3088C30.2544 24.2208 30.3114 25.0128 30.3114 25.6848C30.3114 26.1708 30.2154 26.5218 30.0234 26.7378C29.8314 26.9538 29.5824 27.0618 29.2764 27.0618ZM29.3304 18.9168C29.1984 18.9168 29.0994 18.8658 29.0334 18.7638C28.9734 18.6618 28.9434 18.5358 28.9434 18.3858C28.9434 18.3198 28.9464 18.2718 28.9524 18.2418C28.9464 18.1458 29.0004 18.0978 29.1144 18.0978C29.1984 18.0978 29.2824 18.1188 29.3664 18.1608C29.4564 18.1968 29.4834 18.2238 29.4474 18.2418C29.5074 18.3978 29.5374 18.5208 29.5374 18.6108C29.5374 18.6888 29.5194 18.7518 29.4834 18.7998C29.4474 18.8418 29.3964 18.8808 29.3304 18.9168ZM32.3741 23.3088C32.0201 23.3088 31.6991 23.2308 31.4111 23.0748C31.1291 22.9128 30.9071 22.6908 30.7451 22.4088C30.5891 22.1208 30.5111 21.7938 30.5111 21.4278C30.5111 20.8278 30.7301 20.3808 31.1681 20.0868C31.6121 19.7928 32.1551 19.6458 32.7971 19.6458C33.0911 19.6458 33.3641 19.7178 33.6161 19.8618C33.8741 20.0058 34.0811 20.2128 34.2371 20.4828C34.3931 20.7528 34.4711 21.0648 34.4711 21.4188C34.4711 21.8028 34.3721 22.1388 34.1741 22.4268C33.9761 22.7088 33.7151 22.9278 33.3911 23.0838C33.0731 23.2338 32.7341 23.3088 32.3741 23.3088ZM32.2751 22.7958C32.8331 22.7958 33.2561 22.6698 33.5441 22.4178C33.8321 22.1658 33.9761 21.7968 33.9761 21.3108C33.9761 20.9808 33.8621 20.6958 33.6341 20.4558C33.4121 20.2158 33.1001 20.0958 32.6981 20.0958C32.4281 20.0958 32.1551 20.1468 31.8791 20.2488C31.6031 20.3508 31.3751 20.5038 31.1951 20.7078C31.0151 20.9118 30.9251 21.1578 30.9251 21.4458C30.9251 21.6858 30.9851 21.9108 31.1051 22.1208C31.2251 22.3248 31.3871 22.4898 31.5911 22.6158C31.8011 22.7358 32.0291 22.7958 32.2751 22.7958ZM39.3269 23.2548C39.2189 23.2548 39.1319 23.2098 39.0659 23.1198C39.0059 23.0238 38.9519 22.8798 38.9039 22.6878C38.8559 22.4898 38.7809 22.1478 38.6789 21.6618C38.5769 22.0638 38.3849 22.3848 38.1029 22.6248C37.8209 22.8588 37.4759 22.9758 37.0679 22.9758C36.6959 22.9758 36.3809 22.8468 36.1229 22.5888C35.8709 22.3248 35.6819 21.9798 35.5559 21.5538C35.4299 21.1218 35.3669 20.6568 35.3669 20.1588C35.3669 19.9308 35.3879 19.7358 35.4299 19.5738C35.4779 19.4058 35.5349 19.2798 35.6009 19.1958C35.6729 19.1118 35.7419 19.0728 35.8079 19.0788C35.8799 19.0788 35.9159 19.1268 35.9159 19.2228C35.9159 19.3008 35.8949 19.4238 35.8529 19.5918C35.8109 19.7778 35.7899 19.9908 35.7899 20.2308C35.7899 20.5908 35.8409 20.9418 35.9429 21.2838C36.0509 21.6258 36.2069 21.9078 36.4109 22.1298C36.6209 22.3458 36.8669 22.4538 37.1489 22.4538C37.3829 22.4538 37.5959 22.3848 37.7879 22.2468C37.9799 22.1088 38.1299 21.9348 38.2379 21.7248C38.3519 21.5148 38.4089 21.3078 38.4089 21.1038V19.6728C38.4749 19.5468 38.5649 19.4838 38.6789 19.4838C38.7809 19.4838 38.8499 19.5708 38.8859 19.7448C38.9219 19.9188 38.9399 20.1648 38.9399 20.4828C38.9399 20.7528 38.9369 20.9598 38.9309 21.1038C38.9669 21.3018 39.0209 21.5028 39.0929 21.7068C39.1709 21.9108 39.2669 22.1418 39.3809 22.3998C39.5189 22.7178 39.5879 22.9128 39.5879 22.9848C39.5879 23.1648 39.5009 23.2548 39.3269 23.2548ZM41.7599 23.2998C41.6999 23.3118 41.6609 23.3178 41.6429 23.3178C41.4569 23.3178 41.3279 23.1798 41.2559 22.9038C41.1899 22.6278 41.1569 22.2408 41.1569 21.7428C41.1569 21.5388 41.1629 21.2208 41.1749 20.7888C41.1869 20.5248 41.1929 20.3268 41.1929 20.1948C40.4549 20.1948 40.0859 20.1108 40.0859 19.9428C40.0859 19.8888 40.0919 19.8468 40.1039 19.8168C40.1219 19.7868 40.1579 19.7718 40.2119 19.7718L41.1929 19.7088C41.1869 19.4148 41.1719 19.0938 41.1479 18.7458C41.1239 18.4338 41.1089 18.1458 41.1029 17.8818C41.1029 17.8158 41.1299 17.7708 41.1839 17.7468C41.2379 17.7168 41.2949 17.7018 41.3549 17.7018C41.4269 17.7018 41.4869 17.7408 41.5349 17.8188C41.5829 17.8908 41.6069 17.9658 41.6069 18.0438L41.6699 19.6908L42.4169 19.7268C42.5309 19.7148 42.6269 19.7358 42.7049 19.7898C42.7889 19.8438 42.8339 19.9338 42.8399 20.0598C42.7139 20.1138 42.5759 20.1468 42.4259 20.1588C42.2759 20.1708 42.0239 20.1768 41.6699 20.1768C41.6699 20.7348 41.6969 21.6528 41.7509 22.9308C41.7509 23.0628 41.7509 23.1558 41.7509 23.2098C41.7569 23.2578 41.7599 23.2878 41.7599 23.2998ZM45.4584 23.2998C45.0744 23.2998 44.7204 23.2248 44.3964 23.0748C44.0724 22.9248 43.8144 22.7118 43.6224 22.4358C43.4304 22.1598 43.3344 21.8418 43.3344 21.4818C43.3344 21.0798 43.4094 20.7048 43.5594 20.3568C43.7094 20.0028 43.9284 19.7208 44.2164 19.5108C44.5104 19.2948 44.8524 19.1868 45.2424 19.1868C45.6504 19.1868 45.9594 19.3188 46.1694 19.5828C46.3794 19.8408 46.4784 20.1678 46.4664 20.5638C46.4664 20.9178 46.3254 21.1878 46.0434 21.3738C45.7674 21.5598 45.4134 21.6528 44.9814 21.6528C44.9154 21.6528 44.8164 21.6468 44.6844 21.6348C44.4684 21.6108 44.3154 21.5778 44.2254 21.5358C44.1354 21.4938 44.0904 21.4098 44.0904 21.2838C44.0904 21.2418 44.1024 21.2118 44.1264 21.1938C44.1504 21.1698 44.1984 21.1578 44.2704 21.1578C44.3484 21.1578 44.4864 21.1758 44.6844 21.2118C44.8764 21.2478 45.0474 21.2658 45.1974 21.2658C45.7494 21.2658 46.0254 21.0258 46.0254 20.5458C46.0254 20.2578 45.9714 20.0298 45.8634 19.8618C45.7614 19.6938 45.5784 19.6098 45.3144 19.6098C45.0264 19.6098 44.7684 19.6878 44.5404 19.8438C44.3124 19.9938 44.1354 20.1918 44.0094 20.4378C43.8894 20.6838 43.8294 20.9448 43.8294 21.2208C43.8294 21.6948 43.9614 22.0848 44.2254 22.3908C44.4894 22.6908 44.8974 22.8408 45.4494 22.8408C45.5154 22.8408 45.6264 22.8348 45.7824 22.8228C45.8484 22.8168 45.9294 22.7988 46.0254 22.7688C46.1214 22.7388 46.1904 22.7178 46.2324 22.7058C46.4904 22.6158 46.6794 22.5708 46.7994 22.5708C46.8894 22.5708 46.9584 22.5948 47.0064 22.6428C46.8564 22.8708 46.6314 23.0388 46.3314 23.1468C46.0374 23.2488 45.7464 23.2998 45.4584 23.2998ZM48.1605 23.2998C47.9145 22.8198 47.7195 22.2558 47.5755 21.6078C47.4375 20.9598 47.3685 20.3988 47.3685 19.9248C47.3685 19.7388 47.4105 19.6188 47.4945 19.5648C47.5425 19.5348 47.5785 19.5198 47.6025 19.5198C47.6445 19.5198 47.6745 19.5528 47.6925 19.6188C47.7165 19.6848 47.7405 19.8048 47.7645 19.9788L47.8095 20.3028C47.8755 19.9788 48.0015 19.7238 48.1875 19.5378C48.3795 19.3458 48.6135 19.2498 48.8895 19.2498C49.1955 19.2498 49.4235 19.3098 49.5735 19.4298C49.7235 19.5438 49.7985 19.7358 49.7985 20.0058C49.4985 19.8618 49.2255 19.7898 48.9795 19.7898C48.7455 19.7898 48.5445 19.8528 48.3765 19.9788C48.2085 20.1048 48.0915 20.2908 48.0255 20.5368C47.9715 20.7048 47.9445 20.8638 47.9445 21.0138C47.9445 21.1758 47.9655 21.3288 48.0075 21.4728C48.0555 21.6108 48.1275 21.7818 48.2235 21.9858C48.3135 22.1958 48.3825 22.3758 48.4305 22.5258C48.4845 22.6758 48.5145 22.8378 48.5205 23.0118C48.5205 23.1138 48.4845 23.1888 48.4125 23.2368C48.3405 23.2788 48.2565 23.2998 48.1605 23.2998ZM53.9527 23.3088C53.7787 23.3088 53.5507 23.0508 53.2687 22.5348C52.9927 22.0128 52.6717 21.3528 52.3057 20.5548L52.0447 19.9968C52.0447 19.9368 52.0807 19.8798 52.1527 19.8258C52.2247 19.7658 52.3327 19.7388 52.4767 19.7448C52.5127 19.8108 52.6267 20.0538 52.8187 20.4738C53.0467 20.9658 53.2387 21.3708 53.3947 21.6888C53.5567 22.0008 53.7517 22.3368 53.9797 22.6968C54.0817 22.3248 54.1957 21.9768 54.3217 21.6528C54.4537 21.3228 54.6487 20.8578 54.9067 20.2578L55.0417 19.9428C55.0777 19.8708 55.1467 19.8348 55.2487 19.8348C55.3207 19.8348 55.3837 19.8528 55.4377 19.8888C55.4917 19.9248 55.5187 19.9758 55.5187 20.0418C55.5187 20.1018 55.4887 20.1648 55.4287 20.2308C55.3867 20.2728 55.3267 20.3958 55.2487 20.5998C55.1707 20.7978 55.0897 21.0198 55.0057 21.2658C54.7777 21.9138 54.5797 22.4208 54.4117 22.7868C54.2437 23.1468 54.0907 23.3208 53.9527 23.3088ZM57.7394 23.3088C57.3854 23.3088 57.0644 23.2308 56.7764 23.0748C56.4944 22.9128 56.2724 22.6908 56.1104 22.4088C55.9544 22.1208 55.8764 21.7938 55.8764 21.4278C55.8764 20.8278 56.0954 20.3808 56.5334 20.0868C56.9774 19.7928 57.5204 19.6458 58.1624 19.6458C58.4564 19.6458 58.7294 19.7178 58.9814 19.8618C59.2394 20.0058 59.4464 20.2128 59.6024 20.4828C59.7584 20.7528 59.8364 21.0648 59.8364 21.4188C59.8364 21.8028 59.7374 22.1388 59.5394 22.4268C59.3414 22.7088 59.0804 22.9278 58.7564 23.0838C58.4384 23.2338 58.0994 23.3088 57.7394 23.3088ZM57.6404 22.7958C58.1984 22.7958 58.6214 22.6698 58.9094 22.4178C59.1974 22.1658 59.3414 21.7968 59.3414 21.3108C59.3414 20.9808 59.2274 20.6958 58.9994 20.4558C58.7774 20.2158 58.4654 20.0958 58.0634 20.0958C57.7934 20.0958 57.5204 20.1468 57.2444 20.2488C56.9684 20.3508 56.7404 20.5038 56.5604 20.7078C56.3804 20.9118 56.2904 21.1578 56.2904 21.4458C56.2904 21.6858 56.3504 21.9108 56.4704 22.1208C56.5904 22.3248 56.7524 22.4898 56.9564 22.6158C57.1664 22.7358 57.3944 22.7958 57.6404 22.7958ZM62.0011 23.2998C61.9411 23.3118 61.9021 23.3178 61.8841 23.3178C61.6981 23.3178 61.5691 23.1798 61.4971 22.9038C61.4311 22.6278 61.3981 22.2408 61.3981 21.7428C61.3981 21.5388 61.4041 21.2208 61.4161 20.7888C61.4281 20.5248 61.4341 20.3268 61.4341 20.1948C60.6961 20.1948 60.3271 20.1108 60.3271 19.9428C60.3271 19.8888 60.3331 19.8468 60.3451 19.8168C60.3631 19.7868 60.3991 19.7718 60.4531 19.7718L61.4341 19.7088C61.4281 19.4148 61.4131 19.0938 61.3891 18.7458C61.3651 18.4338 61.3501 18.1458 61.3441 17.8818C61.3441 17.8158 61.3711 17.7708 61.4251 17.7468C61.4791 17.7168 61.5361 17.7018 61.5961 17.7018C61.6681 17.7018 61.7281 17.7408 61.7761 17.8188C61.8241 17.8908 61.8481 17.9658 61.8481 18.0438L61.9111 19.6908L62.6581 19.7268C62.7721 19.7148 62.8681 19.7358 62.9461 19.7898C63.0301 19.8438 63.0751 19.9338 63.0811 20.0598C62.9551 20.1138 62.8171 20.1468 62.6671 20.1588C62.5171 20.1708 62.2651 20.1768 61.9111 20.1768C61.9111 20.7348 61.9381 21.6528 61.9921 22.9308C61.9921 23.0628 61.9921 23.1558 61.9921 23.2098C61.9981 23.2578 62.0011 23.2878 62.0011 23.2998ZM64.3676 23.2998C64.1216 22.8198 63.9266 22.2558 63.7826 21.6078C63.6446 20.9598 63.5756 20.3988 63.5756 19.9248C63.5756 19.7388 63.6176 19.6188 63.7016 19.5648C63.7496 19.5348 63.7856 19.5198 63.8096 19.5198C63.8516 19.5198 63.8816 19.5528 63.8996 19.6188C63.9236 19.6848 63.9476 19.8048 63.9716 19.9788L64.0166 20.3028C64.0826 19.9788 64.2086 19.7238 64.3946 19.5378C64.5866 19.3458 64.8206 19.2498 65.0966 19.2498C65.4026 19.2498 65.6306 19.3098 65.7806 19.4298C65.9306 19.5438 66.0056 19.7358 66.0056 20.0058C65.7056 19.8618 65.4326 19.7898 65.1866 19.7898C64.9526 19.7898 64.7516 19.8528 64.5836 19.9788C64.4156 20.1048 64.2986 20.2908 64.2326 20.5368C64.1786 20.7048 64.1516 20.8638 64.1516 21.0138C64.1516 21.1758 64.1726 21.3288 64.2146 21.4728C64.2626 21.6108 64.3346 21.7818 64.4306 21.9858C64.5206 22.1958 64.5896 22.3758 64.6376 22.5258C64.6916 22.6758 64.7216 22.8378 64.7276 23.0118C64.7276 23.1138 64.6916 23.1888 64.6196 23.2368C64.5476 23.2788 64.4636 23.2998 64.3676 23.2998ZM68.4857 23.2998C68.1017 23.2998 67.7477 23.2248 67.4237 23.0748C67.0997 22.9248 66.8417 22.7118 66.6497 22.4358C66.4577 22.1598 66.3617 21.8418 66.3617 21.4818C66.3617 21.0798 66.4367 20.7048 66.5867 20.3568C66.7367 20.0028 66.9557 19.7208 67.2437 19.5108C67.5377 19.2948 67.8797 19.1868 68.2697 19.1868C68.6777 19.1868 68.9867 19.3188 69.1967 19.5828C69.4067 19.8408 69.5057 20.1678 69.4937 20.5638C69.4937 20.9178 69.3527 21.1878 69.0707 21.3738C68.7947 21.5598 68.4407 21.6528 68.0087 21.6528C67.9427 21.6528 67.8437 21.6468 67.7117 21.6348C67.4957 21.6108 67.3427 21.5778 67.2527 21.5358C67.1627 21.4938 67.1177 21.4098 67.1177 21.2838C67.1177 21.2418 67.1297 21.2118 67.1537 21.1938C67.1777 21.1698 67.2257 21.1578 67.2977 21.1578C67.3757 21.1578 67.5137 21.1758 67.7117 21.2118C67.9037 21.2478 68.0747 21.2658 68.2247 21.2658C68.7767 21.2658 69.0527 21.0258 69.0527 20.5458C69.0527 20.2578 68.9987 20.0298 68.8907 19.8618C68.7887 19.6938 68.6057 19.6098 68.3417 19.6098C68.0537 19.6098 67.7957 19.6878 67.5677 19.8438C67.3397 19.9938 67.1627 20.1918 67.0367 20.4378C66.9167 20.6838 66.8567 20.9448 66.8567 21.2208C66.8567 21.6948 66.9887 22.0848 67.2527 22.3908C67.5167 22.6908 67.9247 22.8408 68.4767 22.8408C68.5427 22.8408 68.6537 22.8348 68.8097 22.8228C68.8757 22.8168 68.9567 22.7988 69.0527 22.7688C69.1487 22.7388 69.2177 22.7178 69.2597 22.7058C69.5177 22.6158 69.7067 22.5708 69.8267 22.5708C69.9167 22.5708 69.9857 22.5948 70.0337 22.6428C69.8837 22.8708 69.6587 23.0388 69.3587 23.1468C69.0647 23.2488 68.7737 23.2998 68.4857 23.2998ZM21.7777 39.5038C21.6577 39.5038 21.5137 39.1828 21.3457 38.5408C21.1837 37.8988 21.0367 37.1848 20.9047 36.3988C20.7787 35.6188 20.7157 35.1268 20.7157 34.9228C20.7157 34.3168 20.9197 33.8758 21.3277 33.5998C21.7357 33.3178 22.2607 33.1768 22.9027 33.1768C23.2447 33.1768 23.5687 33.2488 23.8747 33.3928C24.1807 33.5308 24.4267 33.7318 24.6127 33.9958C24.7987 34.2538 24.8917 34.5538 24.8917 34.8958C24.8917 35.3218 24.7417 35.6218 24.4417 35.7958C24.1477 35.9698 23.7757 36.0568 23.3257 36.0568C22.8577 36.0568 22.4587 35.9788 22.1287 35.8228C21.8047 35.6608 21.6427 35.4418 21.6427 35.1658L21.6517 35.0758C21.6937 35.0278 21.7387 35.0038 21.7867 35.0038C21.8287 35.0038 21.8737 35.0218 21.9217 35.0578C21.9757 35.0878 22.0327 35.1238 22.0927 35.1658C22.2787 35.3038 22.4617 35.4148 22.6417 35.4988C22.8277 35.5828 23.0587 35.6248 23.3347 35.6248C23.7127 35.6248 23.9797 35.5588 24.1357 35.4268C24.2977 35.2888 24.3787 35.0728 24.3787 34.7788C24.3787 34.5628 24.3067 34.3708 24.1627 34.2028C24.0187 34.0348 23.8327 33.9058 23.6047 33.8158C23.3767 33.7258 23.1427 33.6808 22.9027 33.6808C22.3447 33.6808 21.9247 33.8008 21.6427 34.0408C21.3607 34.2748 21.2347 34.6678 21.2647 35.2198C21.3187 36.1558 21.4027 36.9418 21.5167 37.5778C21.6367 38.2138 21.8437 38.7538 22.1377 39.1978L22.1467 39.2158C22.1467 39.2278 22.1317 39.2398 22.1017 39.2518C22.0777 39.2698 22.0597 39.2848 22.0477 39.2968C21.9757 39.4108 21.8857 39.4798 21.7777 39.5038ZM26.4032 36.2998C26.1572 35.8198 25.9622 35.2558 25.8182 34.6078C25.6802 33.9598 25.6112 33.3988 25.6112 32.9248C25.6112 32.7388 25.6532 32.6188 25.7372 32.5648C25.7852 32.5348 25.8212 32.5198 25.8452 32.5198C25.8872 32.5198 25.9172 32.5528 25.9352 32.6188C25.9592 32.6848 25.9832 32.8048 26.0072 32.9788L26.0522 33.3028C26.1182 32.9788 26.2442 32.7238 26.4302 32.5378C26.6222 32.3458 26.8562 32.2498 27.1322 32.2498C27.4382 32.2498 27.6662 32.3098 27.8162 32.4298C27.9662 32.5438 28.0412 32.7358 28.0412 33.0058C27.7412 32.8618 27.4682 32.7898 27.2222 32.7898C26.9882 32.7898 26.7872 32.8528 26.6192 32.9788C26.4512 33.1048 26.3342 33.2908 26.2682 33.5368C26.2142 33.7048 26.1872 33.8638 26.1872 34.0138C26.1872 34.1758 26.2082 34.3288 26.2502 34.4728C26.2982 34.6108 26.3702 34.7818 26.4662 34.9858C26.5562 35.1958 26.6252 35.3758 26.6732 35.5258C26.7272 35.6758 26.7572 35.8378 26.7632 36.0118C26.7632 36.1138 26.7272 36.1888 26.6552 36.2368C26.5832 36.2788 26.4992 36.2998 26.4032 36.2998ZM30.5214 36.2998C30.1374 36.2998 29.7834 36.2248 29.4594 36.0748C29.1354 35.9248 28.8774 35.7118 28.6854 35.4358C28.4934 35.1598 28.3974 34.8418 28.3974 34.4818C28.3974 34.0798 28.4724 33.7048 28.6224 33.3568C28.7724 33.0028 28.9914 32.7208 29.2794 32.5108C29.5734 32.2948 29.9154 32.1868 30.3054 32.1868C30.7134 32.1868 31.0224 32.3188 31.2324 32.5828C31.4424 32.8408 31.5414 33.1678 31.5294 33.5638C31.5294 33.9178 31.3884 34.1878 31.1064 34.3738C30.8304 34.5598 30.4764 34.6528 30.0444 34.6528C29.9784 34.6528 29.8794 34.6468 29.7474 34.6348C29.5314 34.6108 29.3784 34.5778 29.2884 34.5358C29.1984 34.4938 29.1534 34.4098 29.1534 34.2838C29.1534 34.2418 29.1654 34.2118 29.1894 34.1938C29.2134 34.1698 29.2614 34.1578 29.3334 34.1578C29.4114 34.1578 29.5494 34.1758 29.7474 34.2118C29.9394 34.2478 30.1104 34.2658 30.2604 34.2658C30.8124 34.2658 31.0884 34.0258 31.0884 33.5458C31.0884 33.2578 31.0344 33.0298 30.9264 32.8618C30.8244 32.6938 30.6414 32.6098 30.3774 32.6098C30.0894 32.6098 29.8314 32.6878 29.6034 32.8438C29.3754 32.9938 29.1984 33.1918 29.0724 33.4378C28.9524 33.6838 28.8924 33.9448 28.8924 34.2208C28.8924 34.6948 29.0244 35.0848 29.2884 35.3908C29.5524 35.6908 29.9604 35.8408 30.5124 35.8408C30.5784 35.8408 30.6894 35.8348 30.8454 35.8228C30.9114 35.8168 30.9924 35.7988 31.0884 35.7688C31.1844 35.7388 31.2534 35.7178 31.2954 35.7058C31.5534 35.6158 31.7424 35.5708 31.8624 35.5708C31.9524 35.5708 32.0214 35.5948 32.0694 35.6428C31.9194 35.8708 31.6944 36.0388 31.3944 36.1468C31.1004 36.2488 30.8094 36.2998 30.5214 36.2998ZM38.2725 36.3088C38.1825 36.3088 38.1285 36.2848 38.1105 36.2368C38.0925 36.1828 38.0835 36.1018 38.0835 35.9938C38.0895 35.9518 38.0925 35.9038 38.0925 35.8498C38.0925 35.7898 38.0955 35.7448 38.1015 35.7148C38.1375 35.4268 38.1555 35.1538 38.1555 34.8958C38.1555 34.3258 38.0595 33.8818 37.8675 33.5638C37.6755 33.2398 37.3725 33.0778 36.9585 33.0778C36.7305 33.0778 36.5025 33.1348 36.2745 33.2488C36.0525 33.3628 35.8695 33.5038 35.7255 33.6718C35.5875 33.8398 35.5185 33.9928 35.5185 34.1308C35.5485 34.3048 35.6025 34.5178 35.6805 34.7698C35.6865 34.7998 35.7105 34.8928 35.7525 35.0488C35.8005 35.2048 35.8245 35.3458 35.8245 35.4718L35.8335 35.6428C35.8335 35.7388 35.7855 35.7868 35.6895 35.7868C35.5695 35.7868 35.4705 35.7088 35.3925 35.5528C35.3205 35.3968 35.2395 35.1538 35.1495 34.8238C35.0595 34.4998 34.9725 34.2328 34.8885 34.0228C34.8045 33.8128 34.6905 33.6328 34.5465 33.4828C34.4025 33.3328 34.2195 33.2578 33.9975 33.2578C33.6915 33.2578 33.4515 33.3628 33.2775 33.5728C33.1095 33.7828 33.0255 34.0408 33.0255 34.3468C33.0255 34.5508 33.0435 34.8208 33.0795 35.1568C33.1095 35.4088 33.1245 35.6248 33.1245 35.8048C33.1245 35.9128 33.1125 35.9938 33.0885 36.0478C33.0645 36.1018 33.0075 36.1288 32.9175 36.1288C32.7975 36.1288 32.7135 36.0898 32.6655 36.0118C32.6175 35.9278 32.5935 35.8018 32.5935 35.6338C32.5935 35.3038 32.5755 34.9048 32.5395 34.4368C32.5335 34.3768 32.5215 34.2238 32.5035 33.9778C32.4855 33.7258 32.4825 33.4738 32.4945 33.2218L32.5035 32.9248C32.5395 32.8888 32.5815 32.8708 32.6295 32.8708C32.6955 32.8708 32.7495 32.9128 32.7915 32.9968C32.8395 33.0748 32.8635 33.1948 32.8635 33.3568C32.9535 33.2008 33.0855 33.0598 33.2595 32.9338C33.4335 32.8078 33.6165 32.7448 33.8085 32.7448C34.1385 32.7448 34.4115 32.8138 34.6275 32.9518C34.8495 33.0838 35.0505 33.2998 35.2305 33.5998C35.3985 33.2938 35.6505 33.0328 35.9865 32.8168C36.3285 32.6008 36.6795 32.4928 37.0395 32.4928C37.4115 32.4928 37.7205 32.6338 37.9665 32.9158C38.2185 33.1978 38.4015 33.5368 38.5155 33.9328C38.6355 34.3288 38.6955 34.6948 38.6955 35.0308C38.6955 35.3308 38.6685 35.6188 38.6145 35.8948C38.5665 36.1708 38.4525 36.3088 38.2725 36.3088ZM40.0218 36.3088C39.8838 36.3088 39.7728 36.1078 39.6888 35.7058C39.6048 35.2978 39.5508 34.9468 39.5268 34.6528C39.5028 34.3588 39.4698 33.8938 39.4278 33.2578C39.4218 33.1558 39.4188 33.0238 39.4188 32.8618C39.4188 32.6578 39.4338 32.5168 39.4638 32.4388C39.4998 32.3608 39.5568 32.3218 39.6348 32.3218C39.7008 32.3218 39.7518 32.3368 39.7878 32.3668C39.8298 32.3908 39.8658 32.4328 39.8958 32.4928L39.8868 32.8528C39.8868 33.2368 39.9048 33.5998 39.9408 33.9418C39.9828 34.2838 40.0458 34.7428 40.1298 35.3188C40.1778 35.5708 40.2108 35.7778 40.2288 35.9398C40.2408 36.0238 40.2258 36.1078 40.1838 36.1918C40.1418 36.2698 40.0878 36.3088 40.0218 36.3088ZM39.7968 31.3588C39.6648 31.3588 39.5658 31.3078 39.4998 31.2058C39.4398 31.1038 39.4098 30.9778 39.4098 30.8278C39.4098 30.7618 39.4128 30.7138 39.4188 30.6838C39.4128 30.5878 39.4668 30.5398 39.5808 30.5398C39.6648 30.5398 39.7488 30.5608 39.8328 30.6028C39.9228 30.6388 39.9498 30.6658 39.9138 30.6838C39.9738 30.8398 40.0038 30.9628 40.0038 31.0528C40.0038 31.1308 39.9858 31.1938 39.9498 31.2418C39.9138 31.2838 39.8628 31.3228 39.7968 31.3588ZM43.16 36.2998C42.776 36.2998 42.422 36.2248 42.098 36.0748C41.774 35.9248 41.516 35.7118 41.324 35.4358C41.132 35.1598 41.036 34.8418 41.036 34.4818C41.036 34.0798 41.111 33.7048 41.261 33.3568C41.411 33.0028 41.63 32.7208 41.918 32.5108C42.212 32.2948 42.554 32.1868 42.944 32.1868C43.352 32.1868 43.661 32.3188 43.871 32.5828C44.081 32.8408 44.18 33.1678 44.168 33.5638C44.168 33.9178 44.027 34.1878 43.745 34.3738C43.469 34.5598 43.115 34.6528 42.683 34.6528C42.617 34.6528 42.518 34.6468 42.386 34.6348C42.17 34.6108 42.017 34.5778 41.927 34.5358C41.837 34.4938 41.792 34.4098 41.792 34.2838C41.792 34.2418 41.804 34.2118 41.828 34.1938C41.852 34.1698 41.9 34.1578 41.972 34.1578C42.05 34.1578 42.188 34.1758 42.386 34.2118C42.578 34.2478 42.749 34.2658 42.899 34.2658C43.451 34.2658 43.727 34.0258 43.727 33.5458C43.727 33.2578 43.673 33.0298 43.565 32.8618C43.463 32.6938 43.28 32.6098 43.016 32.6098C42.728 32.6098 42.47 32.6878 42.242 32.8438C42.014 32.9938 41.837 33.1918 41.711 33.4378C41.591 33.6838 41.531 33.9448 41.531 34.2208C41.531 34.6948 41.663 35.0848 41.927 35.3908C42.191 35.6908 42.599 35.8408 43.151 35.8408C43.217 35.8408 43.328 35.8348 43.484 35.8228C43.55 35.8168 43.631 35.7988 43.727 35.7688C43.823 35.7388 43.892 35.7178 43.934 35.7058C44.192 35.6158 44.381 35.5708 44.501 35.5708C44.591 35.5708 44.66 35.5948 44.708 35.6428C44.558 35.8708 44.333 36.0388 44.033 36.1468C43.739 36.2488 43.448 36.2998 43.16 36.2998ZM43.25 31.5028C43.16 31.5028 42.896 31.2898 42.458 30.8638C42.368 30.7798 42.308 30.7018 42.278 30.6298C42.248 30.5578 42.248 30.5068 42.278 30.4768C42.32 30.4348 42.365 30.4138 42.413 30.4138C42.515 30.4138 42.656 30.4948 42.836 30.6568C42.848 30.6688 42.962 30.7588 43.178 30.9268C43.394 31.0948 43.502 31.2028 43.502 31.2508C43.502 31.3588 43.484 31.4278 43.448 31.4578C43.412 31.4878 43.346 31.5028 43.25 31.5028ZM45.8622 36.2998C45.6162 35.8198 45.4212 35.2558 45.2772 34.6078C45.1392 33.9598 45.0702 33.3988 45.0702 32.9248C45.0702 32.7388 45.1122 32.6188 45.1962 32.5648C45.2442 32.5348 45.2802 32.5198 45.3042 32.5198C45.3462 32.5198 45.3762 32.5528 45.3942 32.6188C45.4182 32.6848 45.4422 32.8048 45.4662 32.9788L45.5112 33.3028C45.5772 32.9788 45.7032 32.7238 45.8892 32.5378C46.0812 32.3458 46.3152 32.2498 46.5912 32.2498C46.8972 32.2498 47.1252 32.3098 47.2752 32.4298C47.4252 32.5438 47.5002 32.7358 47.5002 33.0058C47.2002 32.8618 46.9272 32.7898 46.6812 32.7898C46.4472 32.7898 46.2462 32.8528 46.0782 32.9788C45.9102 33.1048 45.7932 33.2908 45.7272 33.5368C45.6732 33.7048 45.6462 33.8638 45.6462 34.0138C45.6462 34.1758 45.6672 34.3288 45.7092 34.4728C45.7572 34.6108 45.8292 34.7818 45.9252 34.9858C46.0152 35.1958 46.0842 35.3758 46.1322 35.5258C46.1862 35.6758 46.2162 35.8378 46.2222 36.0118C46.2222 36.1138 46.1862 36.1888 46.1142 36.2368C46.0422 36.2788 45.9582 36.2998 45.8622 36.2998ZM49.9803 36.2998C49.5963 36.2998 49.2423 36.2248 48.9183 36.0748C48.5943 35.9248 48.3363 35.7118 48.1443 35.4358C47.9523 35.1598 47.8563 34.8418 47.8563 34.4818C47.8563 34.0798 47.9313 33.7048 48.0813 33.3568C48.2313 33.0028 48.4503 32.7208 48.7383 32.5108C49.0323 32.2948 49.3743 32.1868 49.7643 32.1868C50.1723 32.1868 50.4813 32.3188 50.6913 32.5828C50.9013 32.8408 51.0003 33.1678 50.9883 33.5638C50.9883 33.9178 50.8473 34.1878 50.5653 34.3738C50.2893 34.5598 49.9353 34.6528 49.5033 34.6528C49.4373 34.6528 49.3383 34.6468 49.2063 34.6348C48.9903 34.6108 48.8373 34.5778 48.7473 34.5358C48.6573 34.4938 48.6123 34.4098 48.6123 34.2838C48.6123 34.2418 48.6243 34.2118 48.6483 34.1938C48.6723 34.1698 48.7203 34.1578 48.7923 34.1578C48.8703 34.1578 49.0083 34.1758 49.2063 34.2118C49.3983 34.2478 49.5693 34.2658 49.7193 34.2658C50.2713 34.2658 50.5473 34.0258 50.5473 33.5458C50.5473 33.2578 50.4933 33.0298 50.3853 32.8618C50.2833 32.6938 50.1003 32.6098 49.8363 32.6098C49.5483 32.6098 49.2903 32.6878 49.0623 32.8438C48.8343 32.9938 48.6573 33.1918 48.5313 33.4378C48.4113 33.6838 48.3513 33.9448 48.3513 34.2208C48.3513 34.6948 48.4833 35.0848 48.7473 35.3908C49.0113 35.6908 49.4193 35.8408 49.9713 35.8408C50.0373 35.8408 50.1483 35.8348 50.3043 35.8228C50.3703 35.8168 50.4513 35.7988 50.5473 35.7688C50.6433 35.7388 50.7123 35.7178 50.7543 35.7058C51.0123 35.6158 51.2013 35.5708 51.3213 35.5708C51.4113 35.5708 51.4803 35.5948 51.5283 35.6428C51.3783 35.8708 51.1533 36.0388 50.8533 36.1468C50.5593 36.2488 50.2683 36.2998 49.9803 36.2998ZM56.3545 36.3088C55.6525 36.3088 55.1065 36.1498 54.7165 35.8318C54.3325 35.5078 54.1405 35.0098 54.1405 34.3378C54.1405 33.9958 54.2245 33.6718 54.3925 33.3658C54.5665 33.0538 54.7975 32.8048 55.0855 32.6188C55.3795 32.4268 55.6945 32.3308 56.0305 32.3308C56.3725 32.3308 56.6635 32.4058 56.9035 32.5558C57.1435 32.6998 57.2635 32.9098 57.2635 33.1858C57.2635 33.3778 57.2275 33.5158 57.1555 33.5998C57.0895 33.6778 57.0145 33.7168 56.9305 33.7168C56.9305 33.4288 56.8525 33.1948 56.6965 33.0148C56.5405 32.8348 56.3185 32.7448 56.0305 32.7448C55.7425 32.7448 55.4935 32.8228 55.2835 32.9788C55.0735 33.1288 54.9115 33.3298 54.7975 33.5818C54.6895 33.8278 54.6355 34.0858 54.6355 34.3558C54.6355 34.9258 54.8275 35.3128 55.2115 35.5168C55.6015 35.7208 56.1145 35.8228 56.7505 35.8228C56.9665 35.8228 57.2485 35.8108 57.5965 35.7868C57.6085 35.7868 57.6355 35.7988 57.6775 35.8228C57.7195 35.8468 57.7525 35.8618 57.7765 35.8678V35.9218C57.7765 36.0958 57.6235 36.2038 57.3175 36.2458C57.0115 36.2878 56.6905 36.3088 56.3545 36.3088ZM60.4525 36.2998C59.8285 36.2998 59.2855 36.1918 58.8235 35.9758C58.3675 35.7538 58.1395 35.3668 58.1395 34.8148C58.1395 34.6168 58.1995 34.4248 58.3195 34.2388C58.4395 34.0528 58.6165 33.9028 58.8505 33.7888C59.0845 33.6688 59.3695 33.6088 59.7055 33.6088C59.9635 33.6088 60.1825 33.6208 60.3625 33.6448C60.5425 33.6688 60.7495 33.7348 60.9835 33.8428C61.2175 33.9508 61.4605 34.1218 61.7125 34.3558C61.6165 33.9418 61.4725 33.5788 61.2805 33.2668C61.0885 32.9548 60.8725 32.7148 60.6325 32.5468C60.3985 32.3728 60.1675 32.2858 59.9395 32.2858C59.8315 32.2858 59.7295 32.3068 59.6335 32.3488C59.5435 32.3848 59.4325 32.4388 59.3005 32.5108C59.1505 32.6068 59.0395 32.6548 58.9675 32.6548C58.9375 32.6548 58.9105 32.6458 58.8865 32.6278C58.8685 32.6038 58.8595 32.5768 58.8595 32.5468C58.8595 32.3068 58.9645 32.1208 59.1745 31.9888C59.3905 31.8568 59.6515 31.7968 59.9575 31.8088C60.3775 31.8328 60.7615 32.0128 61.1095 32.3488C61.4575 32.6788 61.7305 33.0898 61.9285 33.5818C62.1325 34.0738 62.2345 34.5568 62.2345 35.0308C62.2345 35.1088 62.2285 35.2198 62.2165 35.3638L61.9285 35.3458C61.7005 34.8838 61.4065 34.5568 61.0465 34.3648C60.6925 34.1668 60.3355 34.0678 59.9755 34.0678C59.5135 34.0678 59.1835 34.1368 58.9855 34.2748C58.7875 34.4128 58.6885 34.6138 58.6885 34.8778C58.6885 35.1538 58.8265 35.3758 59.1025 35.5438C59.3785 35.7118 59.7325 35.7958 60.1645 35.7958C60.4045 35.7958 60.5965 35.7838 60.7405 35.7598C60.8845 35.7298 61.0345 35.6908 61.1905 35.6428C61.3165 35.6008 61.4275 35.5708 61.5235 35.5528C61.6195 35.5348 61.7425 35.5258 61.8925 35.5258C62.0605 35.5258 62.1655 35.5378 62.2075 35.5618C62.2555 35.5858 62.2795 35.6398 62.2795 35.7238C62.2795 35.7838 62.1565 35.8588 61.9105 35.9488C61.6645 36.0388 61.3885 36.1198 61.0825 36.1918C60.7765 36.2638 60.5665 36.2998 60.4525 36.2998ZM63.7919 36.2998C63.5459 35.8198 63.3509 35.2558 63.2069 34.6078C63.0689 33.9598 62.9999 33.3988 62.9999 32.9248C62.9999 32.7388 63.0419 32.6188 63.1259 32.5648C63.1739 32.5348 63.2099 32.5198 63.2339 32.5198C63.2759 32.5198 63.3059 32.5528 63.3239 32.6188C63.3479 32.6848 63.3719 32.8048 63.3959 32.9788L63.4409 33.3028C63.5069 32.9788 63.6329 32.7238 63.8189 32.5378C64.0109 32.3458 64.2449 32.2498 64.5209 32.2498C64.8269 32.2498 65.0549 32.3098 65.2049 32.4298C65.3549 32.5438 65.4299 32.7358 65.4299 33.0058C65.1299 32.8618 64.8569 32.7898 64.6109 32.7898C64.3769 32.7898 64.1759 32.8528 64.0079 32.9788C63.8399 33.1048 63.7229 33.2908 63.6569 33.5368C63.6029 33.7048 63.5759 33.8638 63.5759 34.0138C63.5759 34.1758 63.5969 34.3288 63.6389 34.4728C63.6869 34.6108 63.7589 34.7818 63.8549 34.9858C63.9449 35.1958 64.0139 35.3758 64.0619 35.5258C64.1159 35.6758 64.1459 35.8378 64.1519 36.0118C64.1519 36.1138 64.1159 36.1888 64.0439 36.2368C63.9719 36.2788 63.8879 36.2998 63.7919 36.2998ZM67.235 36.2998C67.175 36.3118 67.136 36.3178 67.118 36.3178C66.932 36.3178 66.803 36.1798 66.731 35.9038C66.665 35.6278 66.632 35.2408 66.632 34.7428C66.632 34.5388 66.638 34.2208 66.65 33.7888C66.662 33.5248 66.668 33.3268 66.668 33.1948C65.93 33.1948 65.561 33.1108 65.561 32.9428C65.561 32.8888 65.567 32.8468 65.579 32.8168C65.597 32.7868 65.633 32.7718 65.687 32.7718L66.668 32.7088C66.662 32.4148 66.647 32.0938 66.623 31.7458C66.599 31.4338 66.584 31.1458 66.578 30.8818C66.578 30.8158 66.605 30.7708 66.659 30.7468C66.713 30.7168 66.77 30.7018 66.83 30.7018C66.902 30.7018 66.962 30.7408 67.01 30.8188C67.058 30.8908 67.082 30.9658 67.082 31.0438L67.145 32.6908L67.892 32.7268C68.006 32.7148 68.102 32.7358 68.18 32.7898C68.264 32.8438 68.309 32.9338 68.315 33.0598C68.189 33.1138 68.051 33.1468 67.901 33.1588C67.751 33.1708 67.499 33.1768 67.145 33.1768C67.145 33.7348 67.172 34.6528 67.226 35.9308C67.226 36.0628 67.226 36.1558 67.226 36.2098C67.232 36.2578 67.235 36.2878 67.235 36.2998ZM70.9335 36.2998C70.5495 36.2998 70.1955 36.2248 69.8715 36.0748C69.5475 35.9248 69.2895 35.7118 69.0975 35.4358C68.9055 35.1598 68.8095 34.8418 68.8095 34.4818C68.8095 34.0798 68.8845 33.7048 69.0345 33.3568C69.1845 33.0028 69.4035 32.7208 69.6915 32.5108C69.9855 32.2948 70.3275 32.1868 70.7175 32.1868C71.1255 32.1868 71.4345 32.3188 71.6445 32.5828C71.8545 32.8408 71.9535 33.1678 71.9415 33.5638C71.9415 33.9178 71.8005 34.1878 71.5185 34.3738C71.2425 34.5598 70.8885 34.6528 70.4565 34.6528C70.3905 34.6528 70.2915 34.6468 70.1595 34.6348C69.9435 34.6108 69.7905 34.5778 69.7005 34.5358C69.6105 34.4938 69.5655 34.4098 69.5655 34.2838C69.5655 34.2418 69.5775 34.2118 69.6015 34.1938C69.6255 34.1698 69.6735 34.1578 69.7455 34.1578C69.8235 34.1578 69.9615 34.1758 70.1595 34.2118C70.3515 34.2478 70.5225 34.2658 70.6725 34.2658C71.2245 34.2658 71.5005 34.0258 71.5005 33.5458C71.5005 33.2578 71.4465 33.0298 71.3385 32.8618C71.2365 32.6938 71.0535 32.6098 70.7895 32.6098C70.5015 32.6098 70.2435 32.6878 70.0155 32.8438C69.7875 32.9938 69.6105 33.1918 69.4845 33.4378C69.3645 33.6838 69.3045 33.9448 69.3045 34.2208C69.3045 34.6948 69.4365 35.0848 69.7005 35.3908C69.9645 35.6908 70.3725 35.8408 70.9245 35.8408C70.9905 35.8408 71.1015 35.8348 71.2575 35.8228C71.3235 35.8168 71.4045 35.7988 71.5005 35.7688C71.5965 35.7388 71.6655 35.7178 71.7075 35.7058C71.9655 35.6158 72.1545 35.5708 72.2745 35.5708C72.3645 35.5708 72.4335 35.5948 72.4815 35.6428C72.3315 35.8708 72.1065 36.0388 71.8065 36.1468C71.5125 36.2488 71.2215 36.2998 70.9335 36.2998Z" fill="#8B8B8B"/>
</svg>
