<svg width="655" height="735" viewBox="0 0 655 735" fill="none" xmlns="http://www.w3.org/2000/svg">
<path d="M265.101 190.713H254.314L252.263 196.865H245.721L256.836 167.006H262.537L273.714 196.865H267.172L265.101 190.713ZM255.975 185.729H263.44L259.687 174.553L255.975 185.729ZM282.389 174.676V198.075C282.389 200.522 281.739 202.423 280.441 203.776C279.142 205.144 277.269 205.827 274.821 205.827C273.796 205.827 272.818 205.711 271.889 205.479V200.782C272.6 200.905 273.222 200.967 273.755 200.967C275.546 200.967 276.441 200.017 276.441 198.116V174.676H282.389ZM275.97 168.934C275.97 168.045 276.264 167.313 276.852 166.739C277.453 166.165 278.267 165.878 279.292 165.878C280.317 165.878 281.124 166.165 281.712 166.739C282.314 167.313 282.614 168.045 282.614 168.934C282.614 169.836 282.307 170.574 281.691 171.148C281.09 171.723 280.29 172.01 279.292 172.01C278.294 172.01 277.487 171.723 276.872 171.148C276.271 170.574 275.97 169.836 275.97 168.934ZM286.101 185.565C286.101 183.364 286.524 181.402 287.372 179.68C288.22 177.957 289.437 176.624 291.023 175.681C292.622 174.737 294.475 174.266 296.58 174.266C299.574 174.266 302.015 175.182 303.901 177.014C305.802 178.846 306.861 181.334 307.08 184.479L307.121 185.996C307.121 189.4 306.171 192.135 304.271 194.199C302.37 196.25 299.82 197.275 296.621 197.275C293.422 197.275 290.865 196.25 288.951 194.199C287.051 192.148 286.101 189.359 286.101 185.832V185.565ZM292.027 185.996C292.027 188.102 292.424 189.715 293.217 190.836C294.01 191.943 295.145 192.497 296.621 192.497C298.057 192.497 299.178 191.95 299.984 190.856C300.791 189.749 301.194 187.985 301.194 185.565C301.194 183.501 300.791 181.901 299.984 180.767C299.178 179.632 298.043 179.064 296.58 179.064C295.131 179.064 294.01 179.632 293.217 180.767C292.424 181.888 292.027 183.631 292.027 185.996ZM324.061 194.609C322.598 196.387 320.574 197.275 317.99 197.275C315.611 197.275 313.793 196.592 312.535 195.225C311.291 193.857 310.655 191.854 310.628 189.216V174.676H316.555V189.011C316.555 191.321 317.607 192.477 319.713 192.477C321.723 192.477 323.104 191.779 323.856 190.385V174.676H329.803V196.865H324.225L324.061 194.609ZM341.369 169.221V174.676H345.163V179.023H341.369V190.098C341.369 190.918 341.526 191.506 341.841 191.861C342.155 192.217 342.757 192.395 343.646 192.395C344.302 192.395 344.883 192.347 345.389 192.251V196.742C344.227 197.098 343.03 197.275 341.8 197.275C337.644 197.275 335.524 195.177 335.442 190.979V179.023H332.202V174.676H335.442V169.221H341.369ZM358.678 197.275C355.424 197.275 352.772 196.277 350.721 194.281C348.684 192.285 347.665 189.626 347.665 186.304V185.729C347.665 183.501 348.096 181.512 348.957 179.762C349.818 177.998 351.035 176.645 352.607 175.701C354.193 174.744 355.998 174.266 358.022 174.266C361.057 174.266 363.442 175.223 365.179 177.137C366.929 179.051 367.804 181.765 367.804 185.278V187.698H353.674C353.865 189.147 354.44 190.31 355.397 191.185C356.367 192.06 357.591 192.497 359.067 192.497C361.351 192.497 363.135 191.67 364.42 190.016L367.332 193.276C366.443 194.534 365.24 195.519 363.723 196.229C362.205 196.927 360.524 197.275 358.678 197.275ZM358.001 179.064C356.825 179.064 355.868 179.461 355.13 180.254C354.405 181.047 353.941 182.182 353.735 183.658H361.98V183.187C361.952 181.874 361.597 180.862 360.913 180.151C360.23 179.427 359.259 179.064 358.001 179.064ZM377.996 192.087H388.845V196.865H370.429V193.256L380.867 179.475H370.736V174.676H388.517V178.183L377.996 192.087ZM280.256 235.626L284.378 220.676H290.571L283.086 242.865H277.426L269.941 220.676H276.134L280.256 235.626ZM291.945 231.565C291.945 229.364 292.369 227.402 293.217 225.68C294.065 223.957 295.281 222.624 296.867 221.681C298.467 220.737 300.319 220.266 302.425 220.266C305.419 220.266 307.859 221.182 309.746 223.014C311.647 224.846 312.706 227.334 312.925 230.479L312.966 231.996C312.966 235.4 312.016 238.135 310.115 240.199C308.215 242.25 305.665 243.275 302.466 243.275C299.267 243.275 296.71 242.25 294.796 240.199C292.896 238.148 291.945 235.359 291.945 231.832V231.565ZM297.872 231.996C297.872 234.102 298.269 235.715 299.062 236.836C299.855 237.943 300.989 238.497 302.466 238.497C303.901 238.497 305.023 237.95 305.829 236.856C306.636 235.749 307.039 233.985 307.039 231.565C307.039 229.501 306.636 227.901 305.829 226.767C305.023 225.632 303.888 225.064 302.425 225.064C300.976 225.064 299.855 225.632 299.062 226.767C298.269 227.888 297.872 229.631 297.872 231.996ZM323.712 215.221V220.676H327.506V225.023H323.712V236.098C323.712 236.918 323.869 237.506 324.184 237.861C324.498 238.217 325.1 238.395 325.988 238.395C326.645 238.395 327.226 238.347 327.732 238.251V242.742C326.569 243.098 325.373 243.275 324.143 243.275C319.986 243.275 317.867 241.177 317.785 236.979V225.023H314.545V220.676H317.785V215.221H323.712ZM343.276 226.233C342.47 226.124 341.759 226.069 341.144 226.069C338.901 226.069 337.432 226.828 336.734 228.346V242.865H330.808V220.676H336.406L336.57 223.321C337.76 221.284 339.407 220.266 341.513 220.266C342.169 220.266 342.784 220.354 343.358 220.532L343.276 226.233ZM355.95 243.275C352.696 243.275 350.044 242.277 347.993 240.281C345.956 238.285 344.938 235.626 344.938 232.304V231.729C344.938 229.501 345.368 227.512 346.23 225.762C347.091 223.998 348.308 222.645 349.88 221.701C351.466 220.744 353.271 220.266 355.294 220.266C358.329 220.266 360.715 221.223 362.451 223.137C364.201 225.051 365.076 227.765 365.076 231.278V233.698H350.946C351.138 235.147 351.712 236.31 352.669 237.185C353.64 238.06 354.863 238.497 356.34 238.497C358.623 238.497 360.407 237.67 361.692 236.016L364.605 239.276C363.716 240.534 362.513 241.519 360.995 242.229C359.478 242.927 357.796 243.275 355.95 243.275ZM355.274 225.064C354.098 225.064 353.141 225.461 352.402 226.254C351.678 227.047 351.213 228.182 351.008 229.658H359.252V229.187C359.225 227.874 358.869 226.862 358.186 226.151C357.502 225.427 356.531 225.064 355.274 225.064ZM255.565 277.976C255.565 281.394 254.785 284.135 253.227 286.199C251.682 288.25 249.59 289.275 246.951 289.275C244.709 289.275 242.898 288.496 241.517 286.938V297.396H235.59V266.676H241.086L241.291 268.85C242.727 267.127 244.6 266.266 246.91 266.266C249.645 266.266 251.771 267.277 253.288 269.301C254.806 271.324 255.565 274.113 255.565 277.668V277.976ZM249.638 277.545C249.638 275.48 249.269 273.888 248.53 272.767C247.806 271.646 246.746 271.085 245.352 271.085C243.492 271.085 242.214 271.796 241.517 273.218V282.303C242.241 283.766 243.533 284.497 245.393 284.497C248.223 284.497 249.638 282.18 249.638 277.545ZM271.725 272.233C270.918 272.124 270.207 272.069 269.592 272.069C267.35 272.069 265.88 272.828 265.183 274.346V288.865H259.256V266.676H264.855L265.019 269.321C266.208 267.284 267.856 266.266 269.961 266.266C270.617 266.266 271.232 266.354 271.807 266.532L271.725 272.233ZM284.399 289.275C281.145 289.275 278.492 288.277 276.441 286.281C274.404 284.285 273.386 281.626 273.386 278.304V277.729C273.386 275.501 273.816 273.512 274.678 271.762C275.539 269.998 276.756 268.645 278.328 267.701C279.914 266.744 281.719 266.266 283.742 266.266C286.777 266.266 289.163 267.223 290.899 269.137C292.649 271.051 293.524 273.765 293.524 277.278V279.698H279.395C279.586 281.147 280.16 282.31 281.117 283.185C282.088 284.06 283.312 284.497 284.788 284.497C287.071 284.497 288.856 283.67 290.141 282.016L293.053 285.276C292.164 286.534 290.961 287.519 289.443 288.229C287.926 288.927 286.244 289.275 284.399 289.275ZM283.722 271.064C282.546 271.064 281.589 271.461 280.851 272.254C280.126 273.047 279.661 274.182 279.456 275.658H287.7V275.187C287.673 273.874 287.317 272.862 286.634 272.151C285.95 271.427 284.98 271.064 283.722 271.064ZM302.466 266.676L302.65 269.157C304.223 267.229 306.349 266.266 309.028 266.266C311.886 266.266 313.848 267.394 314.914 269.649C316.473 267.394 318.694 266.266 321.579 266.266C323.985 266.266 325.776 266.97 326.952 268.378C328.128 269.772 328.716 271.878 328.716 274.694V288.865H322.769V274.715C322.769 273.457 322.523 272.541 322.03 271.967C321.538 271.379 320.67 271.085 319.426 271.085C317.649 271.085 316.418 271.933 315.734 273.628L315.755 288.865H309.828V274.735C309.828 273.45 309.575 272.521 309.069 271.946C308.564 271.372 307.702 271.085 306.485 271.085C304.804 271.085 303.587 271.782 302.835 273.177V288.865H296.908V266.676H302.466ZM339.544 288.865H333.597V266.676H339.544V288.865ZM333.248 260.934C333.248 260.045 333.542 259.313 334.13 258.739C334.732 258.165 335.545 257.878 336.57 257.878C337.582 257.878 338.389 258.165 338.99 258.739C339.592 259.313 339.893 260.045 339.893 260.934C339.893 261.836 339.585 262.574 338.97 263.148C338.368 263.723 337.568 264.01 336.57 264.01C335.572 264.01 334.766 263.723 334.15 263.148C333.549 262.574 333.248 261.836 333.248 260.934ZM354.658 289.275C351.404 289.275 348.752 288.277 346.701 286.281C344.664 284.285 343.646 281.626 343.646 278.304V277.729C343.646 275.501 344.076 273.512 344.938 271.762C345.799 269.998 347.016 268.645 348.588 267.701C350.174 266.744 351.979 266.266 354.002 266.266C357.037 266.266 359.423 267.223 361.159 269.137C362.909 271.051 363.784 273.765 363.784 277.278V279.698H349.654C349.846 281.147 350.42 282.31 351.377 283.185C352.348 284.06 353.571 284.497 355.048 284.497C357.331 284.497 359.115 283.67 360.4 282.016L363.313 285.276C362.424 286.534 361.221 287.519 359.703 288.229C358.186 288.927 356.504 289.275 354.658 289.275ZM353.982 271.064C352.806 271.064 351.849 271.461 351.11 272.254C350.386 273.047 349.921 274.182 349.716 275.658H357.96V275.187C357.933 273.874 357.577 272.862 356.894 272.151C356.21 271.427 355.239 271.064 353.982 271.064ZM356.278 263.723H351.418L345.758 257.365H352.218L356.278 263.723ZM379.637 272.233C378.83 272.124 378.119 272.069 377.504 272.069C375.262 272.069 373.792 272.828 373.095 274.346V288.865H367.168V266.676H372.767L372.931 269.321C374.12 267.284 375.768 266.266 377.873 266.266C378.529 266.266 379.145 266.354 379.719 266.532L379.637 272.233ZM392.311 289.275C389.057 289.275 386.404 288.277 384.354 286.281C382.316 284.285 381.298 281.626 381.298 278.304V277.729C381.298 275.501 381.729 273.512 382.59 271.762C383.451 269.998 384.668 268.645 386.24 267.701C387.826 266.744 389.631 266.266 391.654 266.266C394.69 266.266 397.075 267.223 398.812 269.137C400.562 271.051 401.437 273.765 401.437 277.278V279.698H387.307C387.498 281.147 388.072 282.31 389.029 283.185C390 284.06 391.224 284.497 392.7 284.497C394.983 284.497 396.768 283.67 398.053 282.016L400.965 285.276C400.076 286.534 398.873 287.519 397.356 288.229C395.838 288.927 394.156 289.275 392.311 289.275ZM391.634 271.064C390.458 271.064 389.501 271.461 388.763 272.254C388.038 273.047 387.573 274.182 387.368 275.658H395.612V275.187C395.585 273.874 395.23 272.862 394.546 272.151C393.862 271.427 392.892 271.064 391.634 271.064ZM280.584 330.497C281.678 330.497 282.566 330.196 283.25 329.595C283.934 328.993 284.289 328.193 284.316 327.195H289.874C289.86 328.699 289.45 330.08 288.644 331.338C287.837 332.582 286.73 333.553 285.321 334.25C283.927 334.934 282.382 335.275 280.687 335.275C277.515 335.275 275.013 334.271 273.181 332.261C271.349 330.237 270.433 327.448 270.433 323.894V323.504C270.433 320.086 271.342 317.358 273.16 315.321C274.979 313.284 277.474 312.266 280.646 312.266C283.421 312.266 285.643 313.059 287.311 314.645C288.992 316.217 289.847 318.315 289.874 320.94H284.316C284.289 319.792 283.934 318.862 283.25 318.151C282.566 317.427 281.664 317.064 280.543 317.064C279.162 317.064 278.116 317.57 277.405 318.582C276.708 319.58 276.359 321.207 276.359 323.463V324.078C276.359 326.361 276.708 328.002 277.405 329C278.103 329.998 279.162 330.497 280.584 330.497ZM306.116 334.865C305.843 334.332 305.645 333.669 305.522 332.876C304.086 334.476 302.22 335.275 299.923 335.275C297.749 335.275 295.944 334.646 294.509 333.389C293.087 332.131 292.376 330.545 292.376 328.631C292.376 326.279 293.244 324.475 294.981 323.217C296.731 321.959 299.253 321.323 302.548 321.31H305.275V320.038C305.275 319.013 305.009 318.192 304.476 317.577C303.956 316.962 303.129 316.654 301.994 316.654C300.996 316.654 300.21 316.894 299.636 317.372C299.075 317.851 298.795 318.507 298.795 319.341H292.868C292.868 318.056 293.265 316.866 294.058 315.772C294.851 314.679 295.972 313.824 297.421 313.209C298.87 312.58 300.497 312.266 302.302 312.266C305.036 312.266 307.203 312.956 308.803 314.337C310.416 315.704 311.223 317.632 311.223 320.12V329.738C311.236 331.844 311.53 333.437 312.105 334.517V334.865H306.116ZM301.215 330.743C302.09 330.743 302.897 330.552 303.635 330.169C304.373 329.772 304.92 329.246 305.275 328.59V324.775H303.061C300.094 324.775 298.515 325.801 298.323 327.852L298.303 328.2C298.303 328.938 298.563 329.547 299.082 330.025C299.602 330.504 300.313 330.743 301.215 330.743ZM328.244 318.233C327.438 318.124 326.727 318.069 326.111 318.069C323.869 318.069 322.399 318.828 321.702 320.346V334.865H315.775V312.676H321.374L321.538 315.321C322.728 313.284 324.375 312.266 326.481 312.266C327.137 312.266 327.752 312.354 328.326 312.532L328.244 318.233ZM339.236 307.221V312.676H343.03V317.023H339.236V328.098C339.236 328.918 339.394 329.506 339.708 329.861C340.023 330.217 340.624 330.395 341.513 330.395C342.169 330.395 342.75 330.347 343.256 330.251V334.742C342.094 335.098 340.898 335.275 339.667 335.275C335.511 335.275 333.392 333.177 333.31 328.979V317.023H330.069V312.676H333.31V307.221H339.236ZM356.545 335.275C353.291 335.275 350.639 334.277 348.588 332.281C346.551 330.285 345.532 327.626 345.532 324.304V323.729C345.532 321.501 345.963 319.512 346.824 317.762C347.686 315.998 348.902 314.645 350.475 313.701C352.061 312.744 353.865 312.266 355.889 312.266C358.924 312.266 361.31 313.223 363.046 315.137C364.796 317.051 365.671 319.765 365.671 323.278V325.698H351.541C351.732 327.147 352.307 328.31 353.264 329.185C354.234 330.06 355.458 330.497 356.935 330.497C359.218 330.497 361.002 329.67 362.287 328.016L365.199 331.276C364.311 332.534 363.107 333.519 361.59 334.229C360.072 334.927 358.391 335.275 356.545 335.275ZM355.868 317.064C354.692 317.064 353.735 317.461 352.997 318.254C352.273 319.047 351.808 320.182 351.603 321.658H359.847V321.187C359.819 319.874 359.464 318.862 358.78 318.151C358.097 317.427 357.126 317.064 355.868 317.064Z" fill="#A3A3A3"/>
<path d="M341.925 433.366C341.925 433.366 364.94 569.848 443.565 625.671C554.267 704.268 602.975 685.449 602.975 685.449" stroke="#C1C1C1" stroke-width="18" stroke-linejoin="round"/>
<path d="M588.293 686.261L590.95 658.227C591.098 656.674 592.887 655.88 594.137 656.813L637.584 689.226C638.786 690.123 638.61 691.974 637.261 692.628L588.489 716.284C587.086 716.964 585.478 715.848 585.626 714.295L588.293 686.261Z" fill="#C1C1C1"/>
<path d="M483.715 197.941C454.021 106.649 355.297 56.3846 264.004 86.0786C172.712 115.773 122.448 214.497 152.142 305.79C181.836 397.082 280.561 447.346 371.853 417.652C463.145 387.958 513.409 289.233 483.715 197.941ZM357.125 372.371C290.664 393.988 219.04 357.522 197.423 291.061C175.806 224.601 212.272 152.977 278.733 131.36C345.193 109.742 416.817 146.208 438.434 212.669C460.052 279.13 423.586 350.754 357.125 372.371Z" fill="#C1C1C1"/>
<path d="M558.233 270.616L503.96 252.734C503.607 301.306 484.572 347.069 451.293 381.314L515.5 402.426C518.166 403.174 520.594 403.191 522.785 402.479C526.437 401.291 528.883 398.88 530.124 395.246L566.143 285.003C567.401 278.94 564.533 272.605 558.233 270.616Z" fill="#C1C1C1"/>
<path d="M621.124 305.077L576.276 293.821L543.486 394.13L587.077 411.449C589.743 412.197 592.172 412.214 594.363 411.502C595.823 411.027 597.284 410.551 598.507 409.346C601.684 406.698 602.687 402.333 601.992 397.714L590.167 353.911L625.11 324.778C628.286 322.13 630.02 317.528 628.832 313.876C628.137 309.257 624.758 306.318 621.124 305.077Z" fill="#C1C1C1"/>
<path d="M168.238 362.739L134.87 409.127C130.945 414.441 132.353 421.252 137.43 424.446L231.411 492.405C234.553 494.614 237.949 495.124 241.601 493.937C243.792 493.224 245.745 491.781 247.461 489.608L286.962 434.764C239.412 427.617 196.86 401.078 168.238 362.739Z" fill="#C1C1C1"/>
<path d="M104.046 473.263C101.107 476.642 100.834 480.769 102.259 485.151C104.178 488.565 107.556 491.504 111.683 491.777L157.078 494.779L173.284 537.156C174.71 541.538 178.581 543.51 182.946 544.513C184.644 544.768 186.105 544.293 187.565 543.818C189.756 543.105 192.44 541.425 193.426 539.489L218.487 499.841L132.961 438.015L104.046 473.263Z" fill="#C1C1C1"/>
</svg>
