<svg width="26" height="33" viewBox="0 0 26 33" fill="none" xmlns="http://www.w3.org/2000/svg">
<path d="M1.66333 6.95105L4.40899 30.5747C4.55298 31.8259 5.6155 32.7692 6.87662 32.7692H18.9417C20.2028 32.7692 21.2653 31.8259 21.4093 30.5747L24.1549 6.95105H1.66333ZM8.93711 28.2411C8.91725 28.2461 8.89739 28.2461 8.87753 28.2461C8.62927 28.2461 8.41578 28.0574 8.38599 27.8042L6.39501 10.0393C6.36522 9.76622 6.55885 9.52294 6.83193 9.49315C7.10004 9.45839 7.35326 9.65699 7.38305 9.93007L9.37403 27.695C9.40382 27.9631 9.21018 28.2113 8.93711 28.2411ZM13.4056 27.5212C13.4056 27.7992 13.1822 28.0177 12.9091 28.0177C12.6361 28.0177 12.4126 27.7992 12.4126 27.5212V9.64706C12.4126 9.37399 12.6361 9.15056 12.9091 9.15056C13.1822 9.15056 13.4056 9.37399 13.4056 9.64706V27.5212ZM17.4323 27.8042C17.4025 28.0574 17.189 28.2461 16.9407 28.2461C16.9209 28.2461 16.901 28.2461 16.8812 28.2411C16.6081 28.2113 16.4144 27.9631 16.4442 27.695L18.4352 9.93007C18.465 9.65699 18.7182 9.45839 18.9863 9.49315C19.2594 9.52294 19.453 9.76622 19.4233 10.0393L17.4323 27.8042Z" fill="#FF4C4C"/>
<path d="M22.3427 1.98601H17.328C17.0996 0.853986 16.0966 0 14.8951 0H10.9231C9.7265 0 8.72357 0.853986 8.49021 1.98601H3.47552C1.55902 1.98601 0 3.54504 0 5.46154C0 5.73462 0.223427 5.95804 0.496503 5.95804H25.3217C25.5948 5.95804 25.8182 5.73462 25.8182 5.46154C25.8182 3.54504 24.2592 1.98601 22.3427 1.98601ZM10.9231 0.993007H14.8951C15.5406 0.993007 16.0966 1.41007 16.3002 1.98601H9.51797C9.72154 1.41007 10.2776 0.993007 10.9231 0.993007Z" fill="#FF4C4C"/>
</svg>
