<svg width="55" height="60" viewBox="0 0 55 60" fill="none" xmlns="http://www.w3.org/2000/svg">
<path d="M16.6633 6.95105L19.4089 30.5747C19.5529 31.8259 20.6154 32.7692 21.8766 32.7692H33.9416C35.2027 32.7692 36.2652 31.8259 36.4092 30.5747L39.1549 6.95105H16.6633ZM23.937 28.2411C23.9172 28.2461 23.8973 28.2461 23.8775 28.2461C23.6292 28.2461 23.4157 28.0574 23.3859 27.8042L21.3949 10.0393C21.3652 9.76622 21.5588 9.52294 21.8319 9.49315C22.1 9.45839 22.3532 9.65699 22.383 9.93007L24.374 27.695C24.4038 27.9631 24.2101 28.2113 23.937 28.2411ZM28.4056 27.5212C28.4056 27.7992 28.1822 28.0177 27.9091 28.0177C27.636 28.0177 27.4126 27.7992 27.4126 27.5212V9.64706C27.4126 9.37399 27.636 9.15056 27.9091 9.15056C28.1822 9.15056 28.4056 9.37399 28.4056 9.64706V27.5212ZM32.4322 27.8042C32.4024 28.0574 32.1889 28.2461 31.9407 28.2461C31.9208 28.2461 31.901 28.2461 31.8811 28.2411C31.608 28.2113 31.4144 27.9631 31.4442 27.695L33.4352 9.93007C33.4649 9.65699 33.7182 9.45839 33.9863 9.49315C34.2594 9.52294 34.453 9.76622 34.4232 10.0393L32.4322 27.8042Z" fill="white"/>
<path d="M37.3427 1.98601H32.328C32.0996 0.853986 31.0966 0 29.8951 0H25.9231C24.7265 0 23.7236 0.853986 23.4902 1.98601H18.4755C16.559 1.98601 15 3.54504 15 5.46154C15 5.73462 15.2234 5.95804 15.4965 5.95804H40.3217C40.5948 5.95804 40.8182 5.73462 40.8182 5.46154C40.8182 3.54504 39.2592 1.98601 37.3427 1.98601ZM25.9231 0.993007H29.8951C30.5406 0.993007 31.0966 1.41007 31.3002 1.98601H24.518C24.7215 1.41007 25.2776 0.993007 25.9231 0.993007Z" fill="white"/>
<path d="M4.51172 55.3184C4.51172 55.0254 4.40039 54.7988 4.17773 54.6387C3.95898 54.4746 3.57422 54.334 3.02344 54.2168C2.47656 54.0996 2.04102 53.959 1.7168 53.7949C1.39648 53.6309 1.1582 53.4355 1.00195 53.209C0.849609 52.9824 0.773438 52.7129 0.773438 52.4004C0.773438 51.8809 0.992188 51.4414 1.42969 51.082C1.87109 50.7227 2.43359 50.543 3.11719 50.543C3.83594 50.543 4.41797 50.7285 4.86328 51.0996C5.3125 51.4707 5.53711 51.9453 5.53711 52.5234H4.44727C4.44727 52.2266 4.32031 51.9707 4.06641 51.7559C3.81641 51.541 3.5 51.4336 3.11719 51.4336C2.72266 51.4336 2.41406 51.5195 2.19141 51.6914C1.96875 51.8633 1.85742 52.0879 1.85742 52.3652C1.85742 52.627 1.96094 52.8242 2.16797 52.957C2.375 53.0898 2.74805 53.2168 3.28711 53.3379C3.83008 53.459 4.26953 53.6035 4.60547 53.7715C4.94141 53.9395 5.18945 54.1426 5.34961 54.3809C5.51367 54.6152 5.5957 54.9023 5.5957 55.2422C5.5957 55.8086 5.36914 56.2637 4.91602 56.6074C4.46289 56.9473 3.875 57.1172 3.15234 57.1172C2.64453 57.1172 2.19531 57.0273 1.80469 56.8477C1.41406 56.668 1.10742 56.418 0.884766 56.0977C0.666016 55.7734 0.556641 55.4238 0.556641 55.0488H1.64062C1.66016 55.4121 1.80469 55.7012 2.07422 55.916C2.34766 56.127 2.70703 56.2324 3.15234 56.2324C3.5625 56.2324 3.89062 56.1504 4.13672 55.9863C4.38672 55.8184 4.51172 55.5957 4.51172 55.3184ZM10.9219 56.373C10.5 56.8691 9.88086 57.1172 9.06445 57.1172C8.38867 57.1172 7.87305 56.9219 7.51758 56.5312C7.16602 56.1367 6.98828 55.5547 6.98438 54.7852V50.6602H8.06836V54.7559C8.06836 55.7168 8.45898 56.1973 9.24023 56.1973C10.0684 56.1973 10.6191 55.8887 10.8926 55.2715V50.6602H11.9766V57H10.9453L10.9219 56.373ZM18.9844 53.9004C18.9844 54.8652 18.7637 55.6426 18.3223 56.2324C17.8809 56.8223 17.2832 57.1172 16.5293 57.1172C15.7598 57.1172 15.1543 56.873 14.7129 56.3848V59.4375H13.6289V50.6602H14.6191L14.6719 51.3633C15.1133 50.8164 15.7266 50.543 16.5117 50.543C17.2734 50.543 17.875 50.8301 18.3164 51.4043C18.7617 51.9785 18.9844 52.7773 18.9844 53.8008V53.9004ZM17.9004 53.7773C17.9004 53.0625 17.748 52.498 17.4434 52.084C17.1387 51.6699 16.7207 51.4629 16.1895 51.4629C15.5332 51.4629 15.041 51.7539 14.7129 52.3359V55.3652C15.0371 55.9434 15.5332 56.2324 16.2012 56.2324C16.7207 56.2324 17.1328 56.0273 17.4375 55.6172C17.7461 55.2031 17.9004 54.5898 17.9004 53.7773ZM25.7227 53.9004C25.7227 54.8652 25.502 55.6426 25.0605 56.2324C24.6191 56.8223 24.0215 57.1172 23.2676 57.1172C22.498 57.1172 21.8926 56.873 21.4512 56.3848V59.4375H20.3672V50.6602H21.3574L21.4102 51.3633C21.8516 50.8164 22.4648 50.543 23.25 50.543C24.0117 50.543 24.6133 50.8301 25.0547 51.4043C25.5 51.9785 25.7227 52.7773 25.7227 53.8008V53.9004ZM24.6387 53.7773C24.6387 53.0625 24.4863 52.498 24.1816 52.084C23.877 51.6699 23.459 51.4629 22.9277 51.4629C22.2715 51.4629 21.7793 51.7539 21.4512 52.3359V55.3652C21.7754 55.9434 22.2715 56.2324 22.9395 56.2324C23.459 56.2324 23.8711 56.0273 24.1758 55.6172C24.4844 55.2031 24.6387 54.5898 24.6387 53.7773ZM30.1699 51.6328C30.0059 51.6055 29.8281 51.5918 29.6367 51.5918C28.9258 51.5918 28.4434 51.8945 28.1895 52.5V57H27.1055V50.6602H28.1602L28.1777 51.3926C28.5332 50.8262 29.0371 50.543 29.6895 50.543C29.9004 50.543 30.0605 50.5703 30.1699 50.625V51.6328ZM32.3496 57H31.2656V50.6602H32.3496V57ZM31.1777 48.9785C31.1777 48.8027 31.2305 48.6543 31.3359 48.5332C31.4453 48.4121 31.6055 48.3516 31.8164 48.3516C32.0273 48.3516 32.1875 48.4121 32.2969 48.5332C32.4062 48.6543 32.4609 48.8027 32.4609 48.9785C32.4609 49.1543 32.4062 49.3008 32.2969 49.418C32.1875 49.5352 32.0273 49.5938 31.8164 49.5938C31.6055 49.5938 31.4453 49.5352 31.3359 49.418C31.2305 49.3008 31.1777 49.1543 31.1777 48.9785ZM35.1094 50.6602L35.1387 51.3633C35.6035 50.8164 36.2305 50.543 37.0195 50.543C37.9062 50.543 38.5098 50.8828 38.8301 51.5625C39.041 51.2578 39.3145 51.0117 39.6504 50.8242C39.9902 50.6367 40.3906 50.543 40.8516 50.543C42.2422 50.543 42.9492 51.2793 42.9727 52.752V57H41.8887V52.8164C41.8887 52.3633 41.7852 52.0254 41.5781 51.8027C41.3711 51.5762 41.0234 51.4629 40.5352 51.4629C40.1328 51.4629 39.7988 51.584 39.5332 51.8262C39.2676 52.0645 39.1133 52.3867 39.0703 52.793V57H37.9805V52.8457C37.9805 51.9238 37.5293 51.4629 36.627 51.4629C35.916 51.4629 35.4297 51.7656 35.168 52.3711V57H34.084V50.6602H35.1094ZM47.2441 57.1172C46.3848 57.1172 45.6855 56.8359 45.1465 56.2734C44.6074 55.707 44.3379 54.9512 44.3379 54.0059V53.8066C44.3379 53.1777 44.457 52.6172 44.6953 52.125C44.9375 51.6289 45.2734 51.2422 45.7031 50.9648C46.1367 50.6836 46.6055 50.543 47.1094 50.543C47.9336 50.543 48.5742 50.8145 49.0312 51.3574C49.4883 51.9004 49.7168 52.6777 49.7168 53.6895V54.1406H45.4219C45.4375 54.7656 45.6191 55.2715 45.9668 55.6582C46.3184 56.041 46.7637 56.2324 47.3027 56.2324C47.6855 56.2324 48.0098 56.1543 48.2754 55.998C48.541 55.8418 48.7734 55.6348 48.9727 55.377L49.6348 55.8926C49.1035 56.709 48.3066 57.1172 47.2441 57.1172ZM47.1094 51.4336C46.6719 51.4336 46.3047 51.5938 46.0078 51.9141C45.7109 52.2305 45.5273 52.6758 45.457 53.25H48.6328V53.168C48.6016 52.6172 48.4531 52.1914 48.1875 51.8906C47.9219 51.5859 47.5625 51.4336 47.1094 51.4336ZM54.041 51.6328C53.877 51.6055 53.6992 51.5918 53.5078 51.5918C52.7969 51.5918 52.3145 51.8945 52.0605 52.5V57H50.9766V50.6602H52.0312L52.0488 51.3926C52.4043 50.8262 52.9082 50.543 53.5605 50.543C53.7715 50.543 53.9316 50.5703 54.041 50.625V51.6328Z" fill="white"/>
</svg>
