<svg width="17" height="17" viewBox="0 0 17 17" fill="none" xmlns="http://www.w3.org/2000/svg">
<path d="M10.5708 2.83731L14.0292 6.31246L5.2756 15.1079L1.8192 11.6341L10.5708 2.83731ZM16.6532 1.99891L15.1109 0.449265C14.9692 0.306876 14.8008 0.193887 14.6153 0.116788C14.4298 0.0396892 14.2309 0 14.03 0C13.8291 0 13.6302 0.0396892 13.4447 0.116788C13.2592 0.193887 13.0908 0.306876 12.9491 0.449265L11.4719 1.93383L14.9299 5.40898L16.6532 3.67738C16.8753 3.45456 17 3.15277 17 2.83814C17 2.52352 16.8753 2.22172 16.6532 1.99891ZM0.00965866 16.5188C-0.00506888 16.5841 -0.00292454 16.6521 0.0158897 16.7164C0.0347039 16.7806 0.0695685 16.8391 0.117199 16.8861C0.16483 16.9332 0.223658 16.9674 0.288142 16.9854C0.352626 17.0035 0.420643 17.0048 0.485785 16.9893L4.33929 16.0503L0.882889 12.5751L0.00965866 16.5188Z" fill="#9E9E9E"/>
</svg>
