<svg width="15" height="15" viewBox="0 0 15 15" fill="none" xmlns="http://www.w3.org/2000/svg">
<path d="M7.5 0C3.35801 0 0 3.35801 0 7.5C0 11.642 3.35801 15 7.5 15C11.642 15 15 11.642 15 7.5C15 3.35801 11.642 0 7.5 0ZM4.04707 11.1571C4.019 11.1638 3.9897 11.1632 3.96192 11.1554C3.93414 11.1477 3.9088 11.1329 3.88828 11.1127C3.86776 11.0924 3.85275 11.0672 3.84465 11.0395C3.83655 11.0118 3.83564 10.9825 3.84199 10.9544L4.21816 9.25518L5.70732 10.752L4.04707 11.1571ZM6.11074 10.3471L4.62158 8.85L8.39209 5.06016L9.88213 6.55723L6.11074 10.3471ZM11.0127 5.42227L10.2703 6.16816L8.78027 4.67109L9.4166 4.03154C9.47766 3.97022 9.55023 3.92156 9.63014 3.88835C9.71005 3.85515 9.79574 3.83806 9.88228 3.83806C9.96881 3.83806 10.0545 3.85515 10.1344 3.88835C10.2143 3.92156 10.2869 3.97022 10.3479 4.03154L11.0127 4.69922C11.1084 4.79521 11.1621 4.92521 11.1621 5.06074C11.1621 5.19627 11.1084 5.32628 11.0127 5.42227V5.42227Z" fill="black"/>
</svg>
