<svg width="653" height="527" viewBox="0 0 653 527" fill="none" xmlns="http://www.w3.org/2000/svg">
<path d="M186.022 354.529C227.429 354.529 260.997 320.93 260.997 279.484C260.997 238.038 227.429 204.439 186.022 204.439C144.615 204.439 111.047 238.038 111.047 279.484C111.047 320.93 144.615 354.529 186.022 354.529Z" fill="#E6E6E6"/>
<path d="M165.766 389.07L184.208 400.509V323.185L163.536 310.363C161.827 309.303 160.578 307.639 160.037 305.701V305.701C162.012 305.324 164.057 305.702 165.766 306.762L184.208 318.202V288.218C184.208 282.417 184.919 276.638 186.325 271.011C187.73 276.638 188.441 282.417 188.441 288.218V337.157L215.649 320.281C217.822 318.933 220.335 318.239 222.891 318.281C221.791 320.59 220.051 322.535 217.878 323.882L188.441 342.141V526.55H184.208V405.493L163.536 392.671C161.827 391.611 160.578 389.947 160.037 388.009V388.009C162.012 387.631 164.056 388.01 165.766 389.07V389.07Z" fill="#CCCCCC"/>
<path d="M74.9747 360.901C116.382 360.901 149.949 327.302 149.949 285.856C149.949 244.409 116.382 210.811 74.9747 210.811C33.5673 210.811 0 244.409 0 285.856C0 327.302 33.5673 360.901 74.9747 360.901Z" fill="#E6E6E6"/>
<path d="M95.2316 395.442L76.7888 406.881V329.557L97.4609 316.735C99.17 315.675 100.419 314.011 100.96 312.073C98.9851 311.695 96.9406 312.074 95.2315 313.134L76.7888 324.573V294.589C76.7888 288.789 76.0781 283.01 74.6726 277.383C73.2671 283.01 72.5564 288.789 72.5564 294.589V343.529L45.3482 326.653C43.1757 325.305 40.662 324.611 38.1064 324.653C39.2064 326.962 40.9463 328.906 43.1189 330.254L72.5564 348.512V525.409H76.7888V411.865L97.4609 399.043C99.17 397.983 100.419 396.319 100.96 394.381C98.9851 394.003 96.9407 394.382 95.2316 395.442Z" fill="#CCCCCC"/>
<path d="M129.437 258.418C200.73 258.418 258.525 200.569 258.525 129.209C258.525 57.8488 200.73 0 129.437 0C58.1445 0 0.350098 57.8488 0.350098 129.209C0.350098 200.569 58.1445 258.418 129.437 258.418Z" fill="#E6E6E6"/>
<path d="M164.314 317.888L132.56 337.584V204.452L168.152 182.376C171.095 180.55 173.245 177.685 174.177 174.348L174.177 174.348H174.177C170.777 173.698 167.257 174.35 164.314 176.175L132.56 195.871V144.246C132.56 134.259 131.337 124.31 128.917 114.621C126.497 124.31 125.273 134.259 125.273 144.246V228.507L78.4275 199.451C74.6869 197.131 70.3589 195.936 65.959 196.008C67.8529 199.984 70.8485 203.331 74.5891 205.651L125.273 237.088V525.693H132.56V346.165L168.152 324.089C171.095 322.263 173.245 319.398 174.177 316.061L174.177 316.061H174.177C170.777 315.411 167.257 316.063 164.314 317.888V317.888Z" fill="#CCCCCC"/>
<path d="M653 525.456H25.8999V527H653V525.456Z" fill="#3F3D56"/>
<path d="M495.914 124.299H494.163V36.3139C494.163 28.3301 490.994 20.6734 485.354 15.028C479.714 9.3827 472.064 6.21118 464.088 6.21118H268.329C260.353 6.21118 252.704 9.3827 247.064 15.028C241.424 20.6734 238.255 28.3301 238.255 36.3139V74.8633H237.592C237.123 74.8633 236.674 75.0496 236.343 75.3812C236.011 75.7127 235.825 76.1624 235.825 76.6313V93.8716C235.825 94.3405 236.011 94.7902 236.343 95.1218C236.674 95.4534 237.123 95.6397 237.592 95.6397H238.255V112.895H237.437C237.205 112.895 236.976 112.941 236.761 113.03C236.547 113.119 236.352 113.249 236.188 113.413C236.024 113.577 235.894 113.772 235.805 113.987C235.717 114.201 235.671 114.431 235.671 114.663V147.291C235.671 147.76 235.857 148.209 236.188 148.541C236.52 148.873 236.969 149.059 237.437 149.059H238.255V161.713H237.514C237.282 161.713 237.053 161.759 236.838 161.848C236.624 161.936 236.429 162.067 236.265 162.231C236.101 162.395 235.971 162.59 235.883 162.804C235.794 163.019 235.748 163.249 235.748 163.481V196.417C235.748 196.886 235.934 197.336 236.265 197.668C236.597 197.999 237.046 198.185 237.514 198.186H238.255V496.69C238.255 504.673 241.423 512.33 247.063 517.976C252.704 523.621 260.353 526.793 268.329 526.793H464.088C472.064 526.793 479.714 523.621 485.354 517.976C490.994 512.33 494.163 504.673 494.163 496.69V187.4H495.914C496.382 187.4 496.831 187.214 497.163 186.882C497.494 186.551 497.68 186.101 497.68 185.632V126.067C497.68 125.598 497.494 125.148 497.163 124.816C496.831 124.485 496.382 124.299 495.914 124.299Z" fill="#3F3D56"/>
<path d="M374.273 29.4038H344.507C343.613 29.4029 342.757 29.0472 342.125 28.4148C341.493 27.7824 341.137 26.9249 341.136 26.0305V24.7405C341.137 23.846 341.493 22.9886 342.125 22.3562C342.757 21.7238 343.613 21.3681 344.507 21.3672H374.273C375.167 21.3681 376.023 21.7238 376.655 22.3562C377.287 22.9886 377.643 23.846 377.644 24.7405V26.0305C377.643 26.9249 377.287 27.7824 376.655 28.4148C376.023 29.0472 375.167 29.4029 374.273 29.4038V29.4038Z" fill="white"/>
<path d="M386.776 29.5122C389.051 29.5122 390.895 27.6663 390.895 25.3893C390.895 23.1123 389.051 21.2665 386.776 21.2665C384.501 21.2665 382.657 23.1123 382.657 25.3893C382.657 27.6663 384.501 29.5122 386.776 29.5122Z" fill="white"/>
<path d="M458.033 19.7687H428.722V23.297C428.722 27.7404 426.959 32.0018 423.82 35.1438C420.68 38.2857 416.423 40.0509 411.984 40.0509H318.605C316.408 40.0519 314.233 39.6197 312.202 38.7791C310.172 37.9385 308.327 36.7058 306.773 35.1515C305.219 33.5972 303.985 31.7517 303.144 29.7203C302.302 27.689 301.868 25.5116 301.867 23.3125V19.7687H274.384C268.994 19.7687 263.824 21.912 260.013 25.7273C256.201 29.5425 254.06 34.7171 254.06 40.1126V40.1126V492.884C254.06 498.279 256.201 503.454 260.013 507.269C263.824 511.084 268.994 513.227 274.384 513.227H458.033C463.421 513.227 468.589 511.085 472.399 507.271C476.21 503.457 478.35 498.285 478.35 492.891V40.1126C478.351 37.442 477.827 34.7974 476.806 32.3297C475.786 29.862 474.291 27.6196 472.405 25.7305C470.519 23.8414 468.28 22.3426 465.815 21.3196C463.351 20.2967 460.709 19.7697 458.041 19.7687H458.033Z" fill="white"/>
<g opacity="0.1">
<path opacity="0.1" d="M491.018 184.69C491.018 183.629 491.018 182.564 491.018 181.493C490.976 182.319 490.976 183.146 491.018 183.972C491.01 184.211 491.018 184.45 491.018 184.69Z" fill="black"/>
</g>
<path d="M521.767 245.401C532.945 245.401 542.006 236.331 542.006 225.143C542.006 213.954 532.945 204.885 521.767 204.885C510.59 204.885 501.528 213.954 501.528 225.143C501.528 236.331 510.59 245.401 521.767 245.401Z" fill="#FFB8B8"/>
<path d="M574.405 389.412C575.195 388.688 575.817 387.8 576.226 386.809C576.636 385.819 576.824 384.751 576.776 383.68C576.729 382.609 576.447 381.561 575.952 380.611C575.456 379.661 574.758 378.831 573.908 378.179L571.148 353.643L555.779 357.842L563.262 379.926C562.264 381.429 561.851 383.246 562.102 385.034C562.353 386.821 563.251 388.454 564.624 389.623C565.998 390.792 567.752 391.417 569.555 391.378C571.357 391.339 573.083 390.64 574.405 389.412V389.412Z" fill="#FFB8B8"/>
<path d="M585.634 513.641L594.117 508.15L576.99 472.787L564.471 480.893L585.634 513.641Z" fill="#FFB8B8"/>
<path d="M615.571 505.442L588.912 522.703L582.249 512.393L598.994 501.552C600.296 500.709 601.751 500.131 603.276 499.851C604.801 499.571 606.367 499.594 607.883 499.919C609.399 500.245 610.837 500.866 612.113 501.748C613.39 502.629 614.48 503.754 615.322 505.057L615.571 505.442V505.442Z" fill="#2F2E41"/>
<path d="M510.513 517.235H520.615L525.423 478.232H510.513V517.235Z" fill="#FFB8B8"/>
<path d="M540.099 526.625H508.348V514.346H528.29C531.422 514.346 534.425 515.591 536.64 517.808C538.855 520.024 540.099 523.031 540.099 526.166V526.625V526.625Z" fill="#2F2E41"/>
<path d="M551.058 265.367C549.715 269.746 554.477 274.512 556.014 278.816C557.552 283.12 559.62 287.261 560.451 291.764C561.02 294.861 573.907 363.257 573.288 367.422C569.321 366.232 565.048 366.625 561.364 368.517C558.789 363.991 557.243 358.953 556.833 353.761C556.678 350.682 556.707 347.597 556.92 344.522C557.32 335.82 553.552 327.107 553.427 318.399C553.466 315.381 553.227 312.366 552.714 309.392C552.302 307.346 552.34 303.518 551.896 301.479C551.19 298.239 554.227 296.744 554.058 293.422L553.133 275.282C552.939 272.104 549.752 268.207 551.058 265.367Z" fill="#2F2E41"/>
<path d="M505.365 341.477C502.117 346.549 495.279 347.647 490.496 351.28C483.188 356.864 501.832 482.322 507.988 504.61C524.229 502.172 524.797 502.18 526.665 501.359C528.533 500.538 530.222 436.813 534.169 423.678C541.554 430.645 564.8 490.524 569.704 503.797C589.194 498.92 569.704 503.797 594.878 497.295C594.667 492.694 557.678 342.786 556.33 330.975C539.406 334.349 522.24 338.112 505.365 341.477Z" fill="#2F2E41"/>
<path d="M503.175 247.27C501.169 253.219 503.9 276.364 504.1 281.568C504.387 286.293 504.387 291.03 504.1 295.755C503.406 303.937 500.975 312.175 502.606 320.22C503.675 325.543 505.575 330.491 506.019 335.908C506.319 339.661 506.225 343.477 507.412 347.036C511.787 345.16 550.571 338.709 553.42 334.957C551.471 325.53 553.358 315.797 552.064 306.258C551.314 300.759 549.458 295.467 548.583 289.994C547.502 283.238 547.958 276.232 545.99 269.671C544.899 266.348 543.512 263.131 541.847 260.056C540.152 256.559 538.026 253.687 537.299 253.688C535.455 253.788 503.293 246.74 503.175 247.27Z" fill="#6C63FF"/>
<path d="M495.751 388.903C495.751 388.903 502.475 375.473 502.813 367.791C502.931 365.033 510.481 354.055 513.88 351.565C521.942 345.654 527.885 306.033 525.161 296.418C520.448 279.798 512.512 264.304 504.456 249.028C504.216 248.458 503.828 247.964 503.331 247.596C501.694 246.576 499.919 248.584 498.8 250.154C495.007 255.477 488.758 258.324 483.033 261.47C477.309 264.616 471.453 268.807 469.722 275.106C468.56 279.335 469.466 283.82 470.347 288.105C471.228 292.39 474.309 295.793 476.64 299.402C479.342 303.385 486.361 321.051 486.308 323.147C486.445 336.108 486.577 349.113 485.008 361.986C484.127 369.261 483.352 383.88 483.352 383.88L495.751 388.903Z" fill="#2F2E41"/>
<path d="M556.82 375.016C544.44 346.811 545.134 314.715 537.266 284.94C534.929 276.101 531.804 267.219 532.366 258.092C532.466 256.459 532.81 254.627 534.172 253.713C535.385 252.9 537.035 253.119 538.366 253.713C539.697 254.308 540.834 255.277 542.115 255.94C544.184 256.997 546.59 257.298 548.577 258.492C551.527 260.269 553.033 263.647 554.352 266.824C557.17 273.611 559.976 280.586 560.201 287.942C560.676 302.229 554.346 315.96 557.645 329.853C558.357 332.593 559.208 335.294 560.195 337.947C563.503 347.531 566.216 357.31 568.319 367.228C568.688 368.923 557.339 376.205 556.82 375.016Z" fill="#2F2E41"/>
<path d="M517.518 368.342C517.683 367.283 517.615 366.201 517.317 365.171C517.02 364.141 516.5 363.189 515.795 362.382C515.09 361.575 514.217 360.933 513.237 360.5C512.257 360.068 511.195 359.855 510.124 359.878L492.665 342.434L483.278 355.318L502.897 367.894C503.054 369.692 503.865 371.37 505.176 372.609C506.487 373.849 508.206 374.564 510.009 374.619C511.811 374.674 513.571 374.066 514.955 372.909C516.339 371.752 517.251 370.127 517.518 368.342V368.342Z" fill="#FFB8B8"/>
<path d="M461.891 328.727C462.179 331.348 484.174 358.989 496.126 368.01C495.432 364.451 504.8 352.841 507.831 351.027C500.257 343.875 484.431 327.288 483.908 326.381C482.196 323.072 483.908 319.119 485.402 315.697C490.108 304.819 492.326 292.477 489.308 281.011C488.17 276.708 486.183 272.398 482.564 269.752C480.983 268.601 478.846 267.813 477.09 268.689C476.355 269.112 475.716 269.685 475.215 270.371C469.609 277.196 461.679 326.782 461.891 328.727Z" fill="#2F2E41"/>
<path d="M513.141 242.869C514.323 237.851 508.349 227.052 509.531 222.034C510.331 218.635 518.315 220.945 520.179 217.993C522.042 215.041 525.163 212.65 528.651 212.611C532.661 212.566 536.606 215.543 540.404 214.256C544.244 212.955 545.472 207.691 543.774 204.006C542.076 200.321 538.419 197.973 534.805 196.133C528.652 192.999 521.487 190.711 514.901 192.784C510.92 194.038 507.591 196.753 504.37 199.409C501.433 201.83 498.447 204.306 496.395 207.512C492.373 213.792 492.616 222.255 496.053 228.874C499.489 235.493 505.751 240.351 512.651 243.171" fill="#2F2E41"/>
<path d="M287.263 145.73V192.053H333.586V145.73H287.263ZM320.352 178.819H300.499V158.966H320.352V178.819Z" fill="black"/>
<path d="M287.263 258.23V304.555H333.586V258.23H287.263ZM320.352 291.321H300.499V271.468H320.352V291.321Z" fill="black"/>
<path d="M399.765 145.73V192.053H446.088V145.73H399.765ZM432.852 178.819H412.999V158.966H432.852V178.819Z" fill="black"/>
<path d="M432.852 205.289V244.996H399.765V258.23H446.088V205.289H432.852Z" fill="black"/>
<path d="M399.765 271.468V304.555H412.999V284.702H432.852V304.555H446.088V271.468H399.765Z" fill="black"/>
<path d="M346.822 145.73V158.966H373.293V192.053H386.529V145.73H346.822Z" fill="black"/>
<path d="M373.293 205.289V231.762H346.822V271.468H373.293V304.555H386.529V258.23H360.058V244.996H386.529V218.525H399.765V231.762H412.999V205.289H373.293Z" fill="black"/>
<path d="M360.058 284.702H346.822V304.555H360.058V284.702Z" fill="black"/>
<path d="M333.586 231.762H313.732V244.996H333.586V231.762Z" fill="black"/>
<path d="M346.822 172.2V205.29H287.263V244.996H300.499V218.526H360.058V172.2H346.822Z" fill="black"/>
<path d="M366.205 470.472C388.729 470.472 406.989 452.212 406.989 429.688C406.989 407.163 388.729 388.903 366.205 388.903C343.68 388.903 325.42 407.163 325.42 429.688C325.42 452.212 343.68 470.472 366.205 470.472Z" fill="#6C63FF"/>
<path d="M362.317 446.904L350.111 431.208L357.21 425.687L362.989 433.119L382.516 412.507L389.045 418.693L362.317 446.904Z" fill="white"/>
</svg>
