<svg width="799" height="331" viewBox="0 0 799 331" fill="none" xmlns="http://www.w3.org/2000/svg">
<path d="M135.624 197.408C135.624 205.088 136.392 212.288 137.928 219.008C139.464 225.536 141.96 231.296 145.416 236.288C148.872 241.088 153.288 244.928 158.664 247.808C164.232 250.496 170.856 251.84 178.536 251.84C185.832 251.84 192.552 250.592 198.696 248.096C204.84 245.6 209.544 243.008 212.808 240.32V145.856C210.12 145.088 206.472 144.416 201.864 143.84C197.448 143.264 191.208 142.976 183.144 142.976C168.744 142.976 157.224 147.68 148.584 157.088C139.944 166.496 135.624 179.936 135.624 197.408ZM107.688 197.408C107.688 185.312 109.416 174.464 112.872 164.864C116.52 155.072 121.608 146.816 128.136 140.096C134.664 133.376 142.536 128.192 151.752 124.544C160.968 120.896 171.336 119.072 182.856 119.072C195.336 119.072 206.28 120.032 215.688 121.952C225.288 123.68 233.256 125.312 239.592 126.848V325.28H212.808V265.376C209.544 267.488 204.552 269.696 197.832 272C191.304 274.304 183.72 275.456 175.08 275.456C164.328 275.456 154.728 273.536 146.28 269.696C138.024 265.856 131.016 260.48 125.256 253.568C119.496 246.656 115.08 238.4 112.008 228.8C109.128 219.2 107.688 208.736 107.688 197.408ZM336.322 252.704C342.658 252.704 348.226 252.608 353.026 252.416C358.018 252.032 362.146 251.456 365.41 250.688V206.048C363.49 205.088 360.322 204.32 355.906 203.744C351.682 202.976 346.498 202.592 340.354 202.592C336.322 202.592 332.002 202.88 327.394 203.456C322.978 204.032 318.85 205.28 315.01 207.2C311.362 208.928 308.29 211.424 305.794 214.688C303.298 217.76 302.05 221.888 302.05 227.072C302.05 236.672 305.122 243.392 311.266 247.232C317.41 250.88 325.762 252.704 336.322 252.704ZM334.018 118.496C344.77 118.496 353.794 119.936 361.09 122.816C368.578 125.504 374.53 129.44 378.946 134.624C383.554 139.616 386.818 145.664 388.738 152.768C390.658 159.68 391.618 167.36 391.618 175.808V269.408C389.314 269.792 386.05 270.368 381.826 271.136C377.794 271.712 373.186 272.288 368.002 272.864C362.818 273.44 357.154 273.92 351.01 274.304C345.058 274.88 339.106 275.168 333.154 275.168C324.706 275.168 316.93 274.304 309.826 272.576C302.722 270.848 296.578 268.16 291.394 264.512C286.21 260.672 282.178 255.68 279.298 249.536C276.418 243.392 274.978 236 274.978 227.36C274.978 219.104 276.61 212 279.874 206.048C283.33 200.096 287.938 195.296 293.698 191.648C299.458 188 306.178 185.312 313.858 183.584C321.538 181.856 329.602 180.992 338.05 180.992C340.738 180.992 343.522 181.184 346.402 181.568C349.282 181.76 351.97 182.144 354.466 182.72C357.154 183.104 359.458 183.488 361.378 183.872C363.298 184.256 364.642 184.544 365.41 184.736V177.248C365.41 172.832 364.93 168.512 363.97 164.288C363.01 159.872 361.282 156.032 358.786 152.768C356.29 149.312 352.834 146.624 348.418 144.704C344.194 142.592 338.626 141.536 331.714 141.536C322.882 141.536 315.106 142.208 308.386 143.552C301.858 144.704 296.962 145.952 293.698 147.296L290.53 125.12C293.986 123.584 299.746 122.144 307.81 120.8C315.874 119.264 324.61 118.496 334.018 118.496ZM491.399 119.072C493.703 119.072 496.295 119.264 499.175 119.648C502.247 119.84 505.223 120.224 508.103 120.8C510.983 121.184 513.575 121.664 515.879 122.24C518.375 122.624 520.199 123.008 521.351 123.392L516.743 146.72C514.631 145.952 511.079 145.088 506.087 144.128C501.287 142.976 495.047 142.4 487.367 142.4C482.375 142.4 477.383 142.976 472.391 144.128C467.591 145.088 464.423 145.76 462.887 146.144V272H436.103V128.576C442.439 126.272 450.311 124.16 459.719 122.24C469.127 120.128 479.687 119.072 491.399 119.072ZM572.252 122.24H628.988V144.704H572.252V213.824C572.252 221.312 572.828 227.552 573.98 232.544C575.132 237.344 576.86 241.184 579.164 244.064C581.468 246.752 584.348 248.672 587.804 249.824C591.26 250.976 595.292 251.552 599.9 251.552C607.964 251.552 614.396 250.688 619.196 248.96C624.188 247.04 627.644 245.696 629.564 244.928L634.748 267.104C632.06 268.448 627.356 270.08 620.636 272C613.916 274.112 606.236 275.168 597.596 275.168C587.42 275.168 578.972 273.92 572.252 271.424C565.724 268.736 560.444 264.8 556.412 259.616C552.38 254.432 549.5 248.096 547.772 240.608C546.236 232.928 545.468 224.096 545.468 214.112V80.48L572.252 75.872V122.24ZM651.907 197.408C651.907 184.16 653.827 172.64 657.667 162.848C661.507 152.864 666.595 144.608 672.931 138.08C679.267 131.552 686.563 126.656 694.819 123.392C703.075 120.128 711.523 118.496 720.163 118.496C740.323 118.496 755.779 124.832 766.531 137.504C777.283 149.984 782.659 169.088 782.659 194.816C782.659 195.968 782.659 197.504 782.659 199.424C782.659 201.152 782.563 202.784 782.371 204.32H679.843C680.995 219.872 685.507 231.68 693.379 239.744C701.251 247.808 713.539 251.84 730.243 251.84C739.651 251.84 747.523 251.072 753.859 249.536C760.387 247.808 765.283 246.176 768.547 244.64L772.291 267.104C769.027 268.832 763.267 270.656 755.011 272.576C746.947 274.496 737.731 275.456 727.363 275.456C714.307 275.456 702.979 273.536 693.379 269.696C683.971 265.664 676.195 260.192 670.051 253.28C663.907 246.368 659.299 238.208 656.227 228.8C653.347 219.2 651.907 208.736 651.907 197.408ZM754.723 182.72C754.915 170.624 751.843 160.736 745.507 153.056C739.363 145.184 730.819 141.248 719.875 141.248C713.731 141.248 708.259 142.496 703.459 144.992C698.851 147.296 694.915 150.368 691.651 154.208C688.387 158.048 685.795 162.464 683.875 167.456C682.147 172.448 680.995 177.536 680.419 182.72H754.723Z" fill="black"/>
<path fill-rule="evenodd" clip-rule="evenodd" d="M24 35C24 28.9249 28.9249 24 35 24H205C211.075 24 216 28.9249 216 35V98C216 104.075 220.925 109 227 109H229C235.075 109 240 104.075 240 98V24V11C240 4.92487 235.075 0 229 0H216H24H11C4.92487 0 0 4.92487 0 11V24V301V314C0 320.075 4.92487 325 11 325H24H164C170.075 325 175 320.075 175 314V312C175 305.925 170.075 301 164 301H35C28.9249 301 24 296.075 24 290V35Z" fill="black"/>
<rect x="47" y="45" width="56" height="56" rx="12" fill="#5982EB"/>
</svg>
