<svg width="263" height="332" viewBox="0 0 263 332" fill="none" xmlns="http://www.w3.org/2000/svg">
<path d="M135.624 197.995C135.624 205.675 136.392 212.875 137.928 219.595C139.464 226.123 141.96 231.883 145.416 236.875C148.872 241.675 153.288 245.515 158.664 248.395C164.232 251.083 170.856 252.427 178.536 252.427C185.832 252.427 192.552 251.179 198.696 248.683C204.84 246.187 209.544 243.595 212.808 240.907V146.443C210.12 145.675 206.472 145.003 201.864 144.427C197.448 143.851 191.208 143.563 183.144 143.563C168.744 143.563 157.224 148.267 148.584 157.675C139.944 167.083 135.624 180.523 135.624 197.995ZM107.688 197.995C107.688 185.899 109.416 175.051 112.872 165.451C116.52 155.659 121.608 147.403 128.136 140.683C134.664 133.963 142.536 128.779 151.752 125.131C160.968 121.483 171.336 119.659 182.856 119.659C195.336 119.659 206.28 120.619 215.688 122.539C225.288 124.267 233.256 125.899 239.592 127.435V325.867H212.808V265.963C209.544 268.075 204.552 270.283 197.832 272.587C191.304 274.891 183.72 276.043 175.08 276.043C164.328 276.043 154.728 274.123 146.28 270.283C138.024 266.443 131.016 261.067 125.256 254.155C119.496 247.243 115.08 238.987 112.008 229.387C109.128 219.787 107.688 209.323 107.688 197.995Z" fill="black"/>
<path fill-rule="evenodd" clip-rule="evenodd" d="M24 35.5874C24 29.5123 28.9249 24.5874 35 24.5874H205C211.075 24.5874 216 29.5123 216 35.5874V98.5874C216 104.663 220.925 109.587 227 109.587H229C235.075 109.587 240 104.663 240 98.5874V24.5874V11.5874C240 5.51227 235.075 0.587402 229 0.587402H216H24H11C4.92487 0.587402 0 5.51227 0 11.5874V24.5874V301.587V314.587C0 320.663 4.92487 325.587 11 325.587H24H164C170.075 325.587 175 320.663 175 314.587V312.587C175 306.512 170.075 301.587 164 301.587H35C28.9249 301.587 24 296.663 24 290.587V35.5874Z" fill="black"/>
<rect x="47" y="45.5874" width="56" height="56" rx="12" fill="#5982EB"/>
</svg>
