<svg width="27" height="26" viewBox="0 0 27 26" fill="none" xmlns="http://www.w3.org/2000/svg">
<path d="M12.155 3.5588C12.8932 2.08891 14.9913 2.08891 15.7295 3.55879L25.5445 23.1023C26.2125 24.4323 25.2456 25.9999 23.7573 25.9999H4.12724C2.63893 25.9999 1.67203 24.4323 2.33997 23.1023L12.155 3.5588Z" fill="#FF4C4C"/>
<path d="M13.8265 18.2477C13.5614 18.2477 13.335 18.1593 13.1473 17.9826C12.9595 17.7948 12.8601 17.5684 12.8491 17.3034L12.6006 10.7431C12.5895 10.4891 12.6724 10.2682 12.8491 10.0805C13.0258 9.8927 13.2411 9.79883 13.4952 9.79883H14.3897C14.6438 9.79883 14.8591 9.8927 15.0358 10.0805C15.2125 10.2682 15.2954 10.4891 15.2843 10.7431L15.0358 17.3034C15.0248 17.5684 14.9254 17.7948 14.7376 17.9826C14.5499 18.1593 14.3235 18.2477 14.0584 18.2477H13.8265ZM14.2241 19.573C14.4781 19.573 14.6935 19.6668 14.8702 19.8546C15.0579 20.0423 15.1518 20.2632 15.1518 20.5172V20.948C15.1518 21.202 15.0579 21.4229 14.8702 21.6106C14.6935 21.7984 14.4781 21.8922 14.2241 21.8922H13.6608C13.4068 21.8922 13.1859 21.7984 12.9982 21.6106C12.8215 21.4229 12.7331 21.202 12.7331 20.948V20.5172C12.7331 20.2632 12.8215 20.0423 12.9982 19.8546C13.1859 19.6668 13.4068 19.573 13.6608 19.573H14.2241Z" fill="white"/>
</svg>
