<svg width="763" height="1535" viewBox="0 0 763 1535" fill="none" xmlns="http://www.w3.org/2000/svg">
<path d="M125.197 0.00402303C60.862 0.00402303 9.09947 52.1133 9.09947 116.879V206.957H6.17092C2.76001 206.957 0 209.739 0 213.166V265.182C0 268.616 2.76001 271.39 6.17092 271.39H9.09947V317.035H6.17092C2.76001 317.035 0 319.817 0 323.251V424.647C0 428.081 2.76001 430.857 6.17092 430.857H9.09947V456.021H6.17092C2.76001 456.021 0 458.796 0 462.23V563.627C0 567.061 2.76001 569.836 6.17092 569.836H9.09947V1418.13C9.09947 1482.89 60.862 1535 125.197 1535H642.196C706.531 1535 758.345 1482.89 758.345 1418.13V533.418C760.927 532.68 763 530.675 763 527.834V363.578C763 360.737 760.924 358.74 758.345 357.996V116.875C758.345 52.1093 706.531 0 642.196 0L125.197 0.00402303ZM116.777 34.4895H193.182C192.452 37.3831 191.927 40.3614 191.927 43.491V55.3891C191.927 75.5698 208.069 91.8197 228.115 91.8197H539.329C559.376 91.8197 575.518 75.5698 575.518 55.3891V43.491C575.518 40.3667 574.994 37.3817 574.263 34.4895H650.668C692.995 34.4895 727.072 68.7955 727.072 111.406V1423.61C727.072 1466.22 692.995 1500.53 650.668 1500.53H116.777C74.4502 1500.53 40.3726 1466.22 40.3726 1423.61V111.406C40.3726 68.7955 74.4503 34.4895 116.777 34.4895V34.4895Z" fill="#EDEDED"/>
</svg>
