<svg width="66" height="69" viewBox="0 0 66 69" fill="none" xmlns="http://www.w3.org/2000/svg">
<mask id="mask0" mask-type="alpha" maskUnits="userSpaceOnUse" x="6" y="17" width="60" height="52">
<path d="M34 35.2964C38.9 35.2964 43 31.2964 43 26.2964C43 21.2964 39 17.2964 34 17.2964C29 17.2964 25 21.2964 25 26.2964C25 31.2964 29.1 35.2964 34 35.2964Z" fill="black"/>
<path d="M34 35.2964C38.9 35.2964 43 31.2964 43 26.2964C43 21.2964 39 17.2964 34 17.2964C29 17.2964 25 21.2964 25 26.2964C25 31.2964 29.1 35.2964 34 35.2964Z" stroke="black"/>
<path d="M65.5 67.4965V46.4965L63.5 43.9965L52.2 32.6965C51.8 32.2965 51.2 32.2965 50.8 32.6965L33.2 50.2965L24.2 41.2965C23.8 40.8965 23.2 40.8965 22.8 41.2965L8.64102 55.3566C8.54941 55.4044 8.5 55.4512 8.5 55.4966L6.5 57.9965V67.4965C6.5 68.0965 6.9 68.4965 7.5 68.4965H64.5C65.1 68.4965 65.5 68.0965 65.5 67.4965Z" fill="black"/>
<path d="M65.5 67.4965V46.4965L63.5 43.9965L52.2 32.6965C51.8 32.2965 51.2 32.2965 50.8 32.6965L33.2 50.2965L24.2 41.2965C23.8 40.8965 23.2 40.8965 22.8 41.2965L8.64102 55.3566C8.54941 55.4044 8.5 55.4512 8.5 55.4966L6.5 57.9965V67.4965C6.5 68.0965 6.9 68.4965 7.5 68.4965H64.5C65.1 68.4965 65.5 68.0965 65.5 67.4965Z" stroke="black"/>
</mask>
<g mask="url(#mask0)">
<circle cx="33" cy="33" r="33" fill="black"/>
<circle cx="33" cy="33" r="33" stroke="black"/>
</g>
<circle cx="33" cy="33" r="31.5" stroke="black" stroke-width="3"/>
</svg>
