<svg width="60" height="60" viewBox="0 0 70 70" fill="none" xmlns="http://www.w3.org/2000/svg">
<path d="M33.4097 65C33.2068 65 33.0023 64.9984 32.7947 64.9937C29.0749 64.9138 25.2974 63.999 21.5652 62.276C9.82519 56.8592 2.93043 48.9064 0.487531 37.9663C-1.99595 19.039 4.99246 7.07919 21.8258 1.25986C21.8773 1.24262 21.9289 1.22696 21.9819 1.21443C36.8672 -2.28814 46.5499 1.79401 50.7707 13.3528C51.7213 15.9562 52.1178 20.2749 52.0101 23.0162C51.6589 31.887 45.8568 35.8422 41.6204 38.7292C39.7753 39.987 38.0317 41.176 37.8257 42.1566C37.3293 44.6895 38.8746 46.4095 41.4783 48.9393C43.6028 51.0054 45.8006 53.1405 45.6523 56.206C44.8625 62.0864 40.7478 65 33.4097 65ZM22.7905 4.31912C7.46189 9.64659 1.37415 20.1621 3.6313 37.4071C5.81664 47.1629 12.1292 54.3905 22.9013 59.3624C26.2324 60.9006 29.5838 61.7167 32.8634 61.7857C40.6494 61.9689 42.0902 58.7327 42.4711 55.9115C42.5382 54.4343 41.0163 52.9556 39.2539 51.2435C36.8345 48.8923 33.8218 45.9646 34.6928 41.5174C35.1705 39.2477 37.3277 37.7783 39.8253 36.0756C43.7027 33.4315 48.5276 30.1419 48.8164 22.8893C48.9116 20.4754 48.5385 16.5624 47.769 14.4556C44.1538 4.55095 35.99 1.23479 22.7905 4.31912Z" fill="black"/>
<path d="M13.3259 49.7463C10.8564 49.7463 8.8459 47.7428 8.84278 45.2788C8.83966 42.8147 10.8486 40.805 13.318 40.8003H13.3196C13.3212 40.8003 13.3227 40.8003 13.3243 40.8003C15.7937 40.8003 17.8027 42.8038 17.8058 45.2678C17.8089 46.4646 17.3422 47.5908 16.493 48.4367C15.6486 49.2795 14.5247 49.7447 13.3305 49.7463C13.329 49.7463 13.3274 49.7463 13.3259 49.7463ZM13.3243 44.0084C12.6156 44.0099 12.0396 44.5786 12.0396 45.2756C12.0396 45.9727 12.6172 46.5382 13.3259 46.5382H13.3274C13.6724 46.5382 13.9971 46.405 14.239 46.1622C14.4778 45.9241 14.609 45.6077 14.609 45.2725C14.609 44.5739 14.0314 44.0084 13.3243 44.0084Z" fill="black"/>
<path d="M16.6487 23.5226C12.8853 23.5226 9.82265 20.4743 9.81641 16.7226C9.81485 14.8993 10.5251 13.1872 11.816 11.898C13.1038 10.6135 14.8177 9.90391 16.6394 9.90234C16.6409 9.90234 16.644 9.90234 16.6472 9.90234C20.4106 9.90234 23.4732 12.9522 23.4779 16.7038C23.4826 20.457 20.4216 23.5163 16.6565 23.5226C16.6534 23.5226 16.6503 23.5226 16.6487 23.5226ZM16.6472 13.1104C16.6456 13.1104 16.644 13.1104 16.6425 13.1104C15.67 13.112 14.7568 13.4895 14.07 14.1725C13.3879 14.8539 13.0117 15.7577 13.0133 16.7179C13.0164 18.7011 14.646 20.3145 16.6472 20.3145C16.6487 20.3145 16.6503 20.3145 16.6518 20.3145C18.6546 20.3114 20.2826 18.6932 20.2811 16.707C20.2795 14.7239 18.6483 13.1104 16.6472 13.1104Z" fill="black"/>
<path d="M10.0652 37.4978C6.98385 37.4978 4.47539 34.9852 4.4707 31.8915C4.46914 28.7962 6.97448 26.2742 10.0589 26.2695C10.0605 26.2695 10.0621 26.2695 10.0636 26.2695C11.5559 26.2695 12.9592 26.8522 14.016 27.9096C15.0759 28.9685 15.6581 30.3783 15.6597 31.8774C15.6612 33.3765 15.0821 34.7879 14.0269 35.8483C12.9701 36.9119 11.5668 37.4962 10.073 37.4978C10.0699 37.4978 10.0667 37.4978 10.0652 37.4978ZM10.0621 29.4776C8.74149 29.4792 7.66599 30.5616 7.66755 31.8884C7.66911 32.5306 7.91886 33.1337 8.37154 33.588C8.82422 34.0407 9.42675 34.2897 10.0652 34.2897C10.0667 34.2897 10.0683 34.2897 10.0699 34.2897C10.7099 34.2897 11.3108 34.0391 11.7635 33.5833C12.2146 33.129 12.4644 32.5243 12.4628 31.8805C12.4628 31.2383 12.2131 30.6352 11.7588 30.1809C11.3061 29.7267 10.7036 29.4776 10.0636 29.4776C10.0636 29.4776 10.0636 29.4776 10.0621 29.4776Z" fill="black"/>
<path d="M36.4575 28.2154C33.9365 28.2154 31.5639 27.2395 29.7766 25.4647C27.983 23.6837 26.9934 21.3136 26.9902 18.7901C26.9871 16.2681 27.9705 13.895 29.7594 12.1092C31.5451 10.3282 33.9209 9.34444 36.4497 9.34131C36.4528 9.34131 36.4575 9.34131 36.4606 9.34131C41.6773 9.34131 45.9247 13.5676 45.9309 18.7666C45.934 21.2901 44.9491 23.6633 43.1602 25.4475C41.3745 27.2301 38.9987 28.2122 36.4715 28.2154C36.4668 28.2154 36.4621 28.2154 36.4575 28.2154ZM36.4528 12.5494C34.7747 12.5525 33.1982 13.2042 32.0134 14.3853C30.8333 15.5632 30.184 17.125 30.1871 18.787C30.1886 20.4474 30.8411 22.0091 32.0243 23.184C33.2091 24.3604 34.7841 25.0073 36.459 25.0073C36.4621 25.0073 36.4637 25.0073 36.4684 25.0073C38.1464 25.0057 39.723 24.3541 40.9062 23.173C42.0863 21.995 42.7356 20.4317 42.7341 18.7697C42.731 15.3392 39.9165 12.5494 36.4606 12.5494C36.4575 12.5494 36.4559 12.5494 36.4528 12.5494Z" fill="black"/>
<path d="M59.0634 20.7588L58.7275 19.7231L61.3843 20.1652L60.7803 21.0502L59.0634 20.7588Z" fill="black"/>
<path d="M60.7806 21.8522C60.7369 21.8522 60.6916 21.8491 60.6479 21.8413L58.9324 21.5499C58.6389 21.4998 58.397 21.2915 58.3049 21.0079L57.9677 19.9725C57.8819 19.7062 57.9396 19.4133 58.1223 19.2003C58.3033 18.9872 58.5827 18.8791 58.859 18.9324L61.5158 19.3741C61.7843 19.418 62.0122 19.5981 62.1199 19.8503C62.2276 20.1025 62.1979 20.3923 62.0434 20.6179L61.4393 21.5029C61.2894 21.7238 61.0412 21.8522 60.7806 21.8522Z" fill="black"/>
<path d="M61.7546 18.8777C61.7093 18.8777 61.6641 18.8745 61.6172 18.8651L58.6467 18.3467C58.4219 18.3075 58.2253 18.1743 58.1051 17.9785C57.3059 16.6831 57.181 14.5136 57.7882 12.4521C58.5562 9.83617 60.9772 6.23335 63.3234 6.48085C63.5357 6.50591 63.7292 6.61556 63.8603 6.78474C63.9915 6.95391 64.0492 7.16852 64.0227 7.38155C63.8837 8.44673 64.1678 9.34744 64.4675 10.3014C64.8437 11.5029 65.2714 12.8625 64.7751 14.5496C64.1476 16.6878 62.4086 18.5487 62.3353 18.627C62.1823 18.7884 61.9716 18.8777 61.7546 18.8777ZM59.3101 16.835L61.4487 17.2079C61.9185 16.6439 62.8582 15.4017 63.2422 14.0953C63.5997 12.8782 63.2953 11.907 62.9425 10.7839C62.7099 10.0429 62.4539 9.22996 62.3993 8.30419C61.3409 8.95269 59.9205 10.8622 59.3211 12.9064C58.8356 14.5559 58.9542 15.9986 59.3101 16.835Z" fill="black"/>
<path d="M54.5566 53.0253L58.6448 22.8237L60.309 23.1098L54.5566 53.0253Z" fill="black"/>
<path d="M54.5594 53.8268C54.5157 53.8268 54.472 53.8236 54.4282 53.8158C54.0005 53.7453 53.7071 53.3474 53.7664 52.9167L57.8546 22.7156C57.8827 22.4995 57.9982 22.3052 58.173 22.1768C58.3494 22.0483 58.5695 21.9967 58.7818 22.0327L60.4457 22.3193C60.6565 22.3569 60.8454 22.4775 60.9671 22.6546C61.0889 22.8316 61.1357 23.0509 61.0951 23.2623L55.343 53.1767C55.2696 53.5589 54.9356 53.8268 54.5594 53.8268ZM59.3265 23.7542L59.2173 24.5562L59.3702 23.762L59.3265 23.7542Z" fill="black"/>
</svg>
