<svg width="50" height="50" viewBox="0 0 50 50" fill="none" xmlns="http://www.w3.org/2000/svg">
<path d="M22.4115 23.2976C22.4115 23.2976 23.4382 19.3112 22.5633 17.5C21.4244 15.1424 16.3749 12.5 16.3749 12.5C16.3749 12.5 15.5 16.6888 16.3749 18.5C17.5139 20.8576 22.4115 23.2976 22.4115 23.2976V23.2976Z" stroke="#02004B" stroke-width="3" stroke-linecap="round" stroke-linejoin="round"/>
<path d="M25.3457 39.5C25.3457 39.5 24.5333 35.3112 25.3457 33.5C26.4033 31.1424 31.0921 28.5 31.0921 28.5C31.0921 28.5 31.9045 32.6888 31.0921 34.5C30.0345 36.8576 25.3457 39.5 25.3457 39.5Z" stroke="#02004B" stroke-width="3" stroke-linecap="round" stroke-linejoin="round"/>
<path fill-rule="evenodd" clip-rule="evenodd" d="M18.3577 24.5021C18.1312 24.5062 17.9127 24.587 17.7382 24.7314C17.5636 24.8758 17.4432 25.0752 17.3968 25.2969C17.3968 25.2969 17.1662 26.3961 17.0511 27.7364C16.9863 28.4905 16.9467 29.3113 17.0218 30.1192L19.0335 28.1075C19.038 28.0415 19.0377 27.9729 19.0433 27.9082C19.0795 27.4866 19.1045 27.4752 19.1527 27.1387C19.3762 27.2677 19.5255 27.3474 19.6956 27.4454L21.1409 26C19.9041 25.1973 18.8382 24.6153 18.8382 24.6153C18.69 24.538 18.5248 24.4991 18.3577 24.5021V24.5021ZM24.3225 28.4766L22.8675 29.9317C23.2231 30.3005 23.5262 30.6538 23.6624 30.9356C23.9117 31.4517 23.9985 32.887 23.8948 34.0939C23.8586 34.5155 23.8336 34.5268 23.7854 34.8633C23.3083 34.5878 23.1574 34.5334 22.4593 34.0586C21.7354 33.5663 20.998 32.9719 20.3968 32.4024L18.9475 33.8516C19.6825 34.552 20.5342 35.1669 21.3343 35.711C22.7921 36.7024 24.0999 37.3868 24.0999 37.3868C24.2368 37.4582 24.3885 37.4969 24.5429 37.4999C24.6973 37.5029 24.8504 37.4702 24.99 37.4042C25.1296 37.3382 25.2521 37.2407 25.3477 37.1194C25.4434 36.9981 25.5096 36.8563 25.5413 36.7051C25.5413 36.7051 25.7719 35.6059 25.887 34.2657C26.0021 32.9254 26.0888 31.3615 25.4632 30.0664C25.1852 29.4911 24.7861 28.9637 24.3225 28.4766V28.4766Z" fill="#02004B"/>
<path fill-rule="evenodd" clip-rule="evenodd" d="M30.0275 16.5016C29.8783 16.5116 29.7321 16.5456 29.5998 16.6148C29.5998 16.6148 28.292 17.2973 26.8342 18.2887C25.3763 19.2801 23.7324 20.4978 22.9748 22.066C22.5879 22.8669 23.3346 21.0677 23.1152 23.9915L30.5256 16.6148C30.3722 16.5348 30.2006 16.4956 30.0275 16.5016ZM31.4553 21.3434L23.4142 29.3843C23.7034 29.5356 24.0483 29.5364 24.3381 29.3843C24.3381 29.3843 25.6459 28.6999 27.1037 27.7085C28.5615 26.7171 30.2055 25.5014 30.9631 23.9332C31.3497 23.1329 31.4513 22.2308 31.4553 21.3414V21.3434Z" fill="#02004B"/>
<path d="M24.9714 37.5137L25.9669 43.9855" stroke="#02004B" stroke-width="3" stroke-linecap="round" stroke-linejoin="round"/>
<path d="M23.3951 17.5002C23.3951 17.5002 21.419 12.6395 22.1558 10.3318C22.7857 8.35885 26.5548 6 26.5548 6C26.5548 6 28.421 10.3893 27.8383 12.5278C27.2506 14.6848 23.3951 17.5002 23.3951 17.5002V17.5002Z" stroke="#02004B" stroke-width="3" stroke-linecap="round" stroke-linejoin="round"/>
<path d="M18.9647 9.98657L17.9739 7.01367" stroke="#02004B" stroke-width="2" stroke-linecap="round" stroke-linejoin="round"/>
<path d="M31.9736 9.98657L32.9645 7.01367" stroke="#02004B" stroke-width="2" stroke-linecap="round" stroke-linejoin="round"/>
<path d="M8.96899 40.999L40.969 8.99902" stroke="white" stroke-width="2" stroke-linecap="round" stroke-linejoin="round"/>
<path d="M24.969 48C37.6715 48 47.969 37.7025 47.969 25C47.969 12.2975 37.6715 2 24.969 2C12.2664 2 1.96899 12.2975 1.96899 25C1.96899 37.7025 12.2664 48 24.969 48Z" stroke="#02004B" stroke-width="3" stroke-linecap="round" stroke-linejoin="round"/>
<path d="M8.96899 40.999L40.969 8.99902" stroke="#02004B" stroke-width="3" stroke-linecap="round" stroke-linejoin="round"/>
</svg>
